<svg id="Layer_1" data-name="Layer 1" xmlns="http://www.w3.org/2000/svg" viewBox="0 0 555.87 546.58"><defs><style>.cls-1{fill:#7a5cbd;}.cls-2{fill:#ed038f;}.cls-3{fill:#47e700;}.cls-4{fill:#f4bd03;}</style></defs><path class="cls-1" d="M238,103.79l-.56,64.6c1.12,41.48-45.36,67.52-48.36,69.16L281,187.8a84.06,84.06,0,0,0,20.86-15.69c18.84-19.71,19.47-39.78,19.47-39.78L326.58,13l-60,32.47C236.76,61.6,238,103.79,238,103.79Z"/><path class="cls-2" d="M115.7,320.26,179.89,313c41-6.12,72.5,36.88,74.49,39.66L193.9,267.42a83.73,83.73,0,0,0-18.09-18.82C154,232.28,134,234.07,134,234.07l-119.1,9.22,39.47,55.64C74,326.59,115.7,320.26,115.7,320.26Z"/><path class="cls-3" d="M447.69,228l-64.58,1.29c-41.43,2.32-68.8-43.4-70.52-46.35L365,273.42a84.13,84.13,0,0,0,16.27,20.41c20.25,18.26,40.33,18.32,40.33,18.32L541,313.94l-34.18-59C489.84,225.55,447.69,228,447.69,228Z"/><path class="cls-4" d="M330.63,438.55,328,374c-3.16-41.37,42-69.67,44.91-71.45l-89.39,54.2a83.92,83.92,0,0,0-20.08,16.69C245.63,394.06,246,414.14,246,414.14l.65,119.45L305,498.22C334,480.64,330.63,438.55,330.63,438.55Z"/><circle class="cls-2" cx="184.9" cy="380.34" r="41.51"/><circle class="cls-1" cx="167.77" cy="161.28" r="41.51"/><circle class="cls-3" cx="394.02" cy="161.08" r="41.51"/><circle class="cls-4" cx="396.33" cy="382.75" r="41.51"/></svg>