<svg xmlns="http://www.w3.org/2000/svg" xmlns:xlink="http://www.w3.org/1999/xlink" viewBox="0 0 2080.06 1242.14"><defs><style>.cls-1,.cls-10,.cls-11,.cls-14,.cls-18,.cls-19,.cls-23,.cls-25,.cls-26,.cls-27,.cls-28,.cls-29,.cls-30,.cls-32,.cls-34{fill:none;}.cls-2{isolation:isolate;}.cls-3{fill:#fbfafd;}.cls-4{fill:#7a5cbd;}.cls-5{fill:#f6f3fa;}.cls-6{fill:#f4bd03;}.cls-7{fill:#8bab46;}.cls-8{fill:#ccc7dd;}.cls-9{fill:#ed038f;}.cls-10{stroke:#7a5cbd;stroke-linejoin:round;stroke-width:7.71px;}.cls-10,.cls-11,.cls-14,.cls-18,.cls-19,.cls-23,.cls-27,.cls-29,.cls-30{stroke-linecap:round;}.cls-11{stroke:#ccc7dd;stroke-width:2px;}.cls-11,.cls-14,.cls-18,.cls-19,.cls-23,.cls-24,.cls-25,.cls-26,.cls-27,.cls-28,.cls-29,.cls-30,.cls-32,.cls-34{stroke-miterlimit:10;}.cls-12{fill:#47e700;}.cls-13{fill:#fec2a0;}.cls-14,.cls-18,.cls-19,.cls-24,.cls-26,.cls-27,.cls-28,.cls-32,.cls-34{stroke:#1d1d1b;}.cls-14{stroke-width:1.39px;}.cls-15{fill:#1d1d1b;}.cls-16{clip-path:url(#clip-path);}.cls-17,.cls-24{fill:#fff;}.cls-18{stroke-width:1.64px;}.cls-19{stroke-width:1.66px;}.cls-20{fill:#d0c5e7;}.cls-21{fill:#6f4eb7;}.cls-22{fill:#e8ab00;}.cls-23,.cls-25,.cls-30{stroke:#000;}.cls-23{stroke-width:1.76px;}.cls-24,.cls-32{stroke-width:1.17px;}.cls-25{stroke-width:2.68px;}.cls-26{stroke-width:1.25px;}.cls-27{stroke-width:1.67px;}.cls-28{stroke-width:1.17px;}.cls-29{stroke:#f9f9f9;stroke-width:5px;}.cls-30{stroke-width:2.59px;}.cls-31{fill:#f9f9f9;}.cls-33{fill:#9ebc5c;}.cls-34{stroke-width:1.53px;}.cls-35{clip-path:url(#clip-path-2);}.cls-36{fill:#fff6d9;mix-blend-mode:multiply;}</style><clipPath id="clip-path" transform="translate(-215.16 -116.49)"><polygon class="cls-1" points="1765.72 973.23 1758.31 981.36 1671.58 1076.53 1601.98 1004.38 1598.5 1000.77 1597.03 999.25 1593.49 995.57 1512.07 911.17 1508.51 907.48 1501.33 900.04 1497.87 896.45 1485.49 883.62 1458.61 799.3 1452.48 884.82 1461.69 934.13 1462.84 940.27 1468.06 968.24 1469.36 975.19 1496.06 1118.1 1366.21 1119.7 1359.99 1119.77 1337.35 1120.05 1336.01 1105.85 1335.14 1096.55 1322.22 959.57 1321.55 952.43 1316.67 900.68 1316.02 893.79 1312.1 852.15 1323.15 767.27 1324.4 757.68 1329.99 714.78 1330.89 707.85 1342.63 617.69 1417.23 618.25 1422.65 618.29 1485.91 618.76 1498.79 618.86 1533.65 619.12 1538.54 619.16 1557.79 619.3 1574.21 683.18 1575.48 688.14 1594.67 762.84 1596.48 769.86 1602.08 791.66 1615.76 806.83 1619.07 810.51 1664.02 860.38 1668.1 864.91 1703.61 904.31 1706.96 908.03 1763.13 970.36 1765.72 973.23"/></clipPath><clipPath id="clip-path-2" transform="translate(-215.16 -116.49)"><rect class="cls-1" x="354.16" y="1078.59" width="187.94" height="229.63"/></clipPath></defs><g class="cls-2"><g id="Слой_1" data-name="Слой 1"><path id="bg" class="cls-3" d="M502.19,1083.16C273.91,1061.81,186.36,803.91,364,673.8q3.53-2.59,7.19-5.15c234.39-164,275.8-186.27,361.13-294S1661.24-23,2024.73,196.63s352.25,637.25,16.73,836.26C1781.89,1186.86,886.61,1119.11,502.19,1083.16Z" transform="translate(-215.16 -116.49)"/><g id="screens"><rect class="cls-4" x="471.58" y="34.76" width="945.9" height="49.97"/><rect class="cls-5" x="471.58" y="84.73" width="945.9" height="553.5"/><circle class="cls-6" cx="558.33" cy="59.75" r="17.96"/><circle class="cls-7" cx="609.39" cy="59.75" r="17.96"/><rect class="cls-8" x="705.4" y="263.42" width="406.1" height="16.08"/><rect class="cls-8" x="574.02" y="300.32" width="17.2" height="17.22"/><rect class="cls-8" x="574.02" y="415.56" width="17.2" height="20.58"/><rect class="cls-8" x="574.02" y="375.06" width="17.2" height="20.58"/><rect class="cls-8" x="574.02" y="458.67" width="17.2" height="19.53"/><rect class="cls-8" x="605.91" y="300.32" width="83.18" height="17.22"/><rect class="cls-8" x="697.22" y="300.32" width="68.79" height="17.22"/><rect class="cls-8" x="774.15" y="300.32" width="41.28" height="17.22"/><rect class="cls-8" x="848.57" y="300.32" width="57.54" height="17.22"/><rect class="cls-8" x="921.12" y="300.32" width="125.71" height="17.22"/><rect class="cls-8" x="574.02" y="336.67" width="152.6" height="18.71"/><rect class="cls-8" x="741" y="336.67" width="125.71" height="18.71"/><rect class="cls-8" x="877.34" y="336.67" width="63.79" height="18.71"/><rect class="cls-8" x="602.79" y="376.15" width="160.1" height="18.42"/><rect class="cls-8" x="774.21" y="376.15" width="56.91" height="18.42"/><rect class="cls-8" x="852.95" y="376.15" width="91.31" height="18.42"/><rect class="cls-8" x="965.52" y="376.15" width="108.82" height="18.42"/><rect class="cls-8" x="935.81" y="414.25" width="96.31" height="17.22"/><rect class="cls-8" x="715.52" y="415.82" width="101" height="20.33"/><rect class="cls-8" x="618.83" y="415.82" width="83.18" height="20.33"/><rect class="cls-8" x="1085.6" y="376.15" width="69.42" height="18.42"/><rect class="cls-8" x="1167.53" y="376.15" width="80.05" height="18.42"/><rect class="cls-8" x="1056.2" y="300.32" width="40.03" height="17.22"/><rect class="cls-8" x="1109.36" y="300.32" width="60.66" height="17.22"/><rect class="cls-8" x="965.96" y="337.42" width="62.54" height="17.22"/><rect class="cls-8" x="685.97" y="462.54" width="91.31" height="19.53"/><rect class="cls-8" x="602.79" y="458.67" width="44.72" height="19.53"/><rect class="cls-8" x="574.02" y="498.98" width="46.91" height="19.46"/><rect class="cls-8" x="632.18" y="498.98" width="90.68" height="19.46"/><rect class="cls-8" x="1006.15" y="459.05" width="124.46" height="17.03"/><circle class="cls-9" cx="507.44" cy="59.75" r="17.96"/><path class="cls-7" d="M1047,689.44l22.5,9.17,10.93-26.83-21.17-8.62a34,34,0,0,0-2.68-13.08l13.21-18L1046.4,615l-11.58,15.76a33.69,33.69,0,0,0-14.52-1l-11.66-19.4-24.83,14.93,12.35,20.52a32.61,32.61,0,0,0-1.88,3.56,33.76,33.76,0,0,0-2.67,9.22l-21.37,4.56,6,28.33,23.93-5.11a33.76,33.76,0,0,0,11,8c.29.14.58.25.88.37l-.83,24.78,29,1,.9-27.06A33.67,33.67,0,0,0,1047,689.44Zm-26.36-12.83a13.77,13.77,0,1,1,18.22-6.87A13.77,13.77,0,0,1,1020.6,676.61Z" transform="translate(-215.16 -116.49)"/><path class="cls-7" d="M1126,595.89a23.62,23.62,0,0,0,2.25-4.32l16.83-2-2.34-20.08-15.84,1.85a23.91,23.91,0,0,0-6-7.1l2-15.44-20-2.63-1.77,13.54a23.41,23.41,0,0,0-9.22,4.25l-13.66-7.93L1068,573.54l14.45,8.4a24.06,24.06,0,0,0,.06,2.81,23.78,23.78,0,0,0,1.45,6.53l-11.53,10,13.23,15.29,12.92-11.18a23.43,23.43,0,0,0,9.42,1.16c.22,0,.45,0,.66-.07l7.82,15.43,18-9.14Zm-18.19-3.29a9.61,9.61,0,1,1,8.82-10.34A9.62,9.62,0,0,1,1107.79,592.6Z" transform="translate(-215.16 -116.49)"/><polygon class="cls-4" points="1678.66 329.66 998.45 329.66 998.45 261.03 1678.66 260.68 1678.66 329.66"/><rect class="cls-5" x="998.07" y="310.3" width="680.2" height="394.3"/><circle class="cls-9" cx="1040.45" cy="284.94" r="12.91"/><circle class="cls-6" cx="1077.04" cy="284.94" r="12.91"/><circle class="cls-7" cx="1113.76" cy="284.94" r="12.91"/><line class="cls-10" x1="1568.39" y1="349.61" x2="1525.97" y2="459.73"/><path class="cls-10" d="M1800.71,496c2.43,2.18,40.7,28.72,40.7,28.72l-41,27.33" transform="translate(-215.16 -116.49)"/><polyline class="cls-10" points="1509.38 378.99 1468.99 405.7 1504.82 432.95"/><line class="cls-11" x1="998.07" y1="310.3" x2="998.46" y2="642.01"/></g><g id="logo"><path class="cls-4" d="M984.59,319.65H993a18.48,18.48,0,0,1-7.08,10.8c-3.49,2.58-7.87,3.88-13.16,3.87q-9.62,0-15-6.22-5.4-6.06-5.4-17.37,0-10.78,5.23-16.86,5.4-6.22,15-6.22,10.11,0,15.68,6.07a23.34,23.34,0,0,1,4.39,8.6H980.88a9.85,9.85,0,0,0-1.7-2.53,8.09,8.09,0,0,0-6.22-2.36,8.23,8.23,0,0,0-6.07,2.36q-3,3.39-3,11.13t3,11q2.19,2.7,6.58,2.7a9.59,9.59,0,0,0,4.89-1.18,2.49,2.49,0,0,0,.93-.57l.92-.93a7.24,7.24,0,0,1,1.36-1.35A4.62,4.62,0,0,1,984.59,319.65Z" transform="translate(-215.16 -116.49)"/><path class="cls-4" d="M996.48,275.46h6.09a5.67,5.67,0,0,1,4,1.6,5.26,5.26,0,0,1,1.69,4v52.46H996.48Z" transform="translate(-215.16 -116.49)"/><path class="cls-4" d="M1042.71,331.63a20.89,20.89,0,0,1-7.51,2.26,68.13,68.13,0,0,1-7,.42,17.75,17.75,0,0,1-10.63-3.29q-4.52-3.28-4.52-10.88,0-7.08,4.13-10.12a24,24,0,0,1,10.55-4,9.39,9.39,0,0,0,2-.24c.79-.17,1.7-.31,2.7-.43q7.42-1,7.42-4.38a3.2,3.2,0,0,0-2.61-3.29,17.44,17.44,0,0,0-4.81-.76,12.4,12.4,0,0,0-4.22.68,4.6,4.6,0,0,0-2.69,2.53h-11.31a13,13,0,0,1,4.72-8.6q4.54-3.89,13-3.88,9.45,0,14.18,3.2a10.85,10.85,0,0,1,4.89,9.44V315.6q0,6.73-2.45,10.54A15,15,0,0,1,1042.71,331.63Zm-2.7-20.75a31.89,31.89,0,0,1-6.59,2.2l-3.88.84a10.18,10.18,0,0,0-4.39,2.19,6.94,6.94,0,0,0-1.18,3.71,5.48,5.48,0,0,0,1.52,4.05,6.38,6.38,0,0,0,4.38,1.35A9.34,9.34,0,0,0,1040,315.1Z" transform="translate(-215.16 -116.49)"/><path class="cls-4" d="M1055.3,318.64h11.47a6.18,6.18,0,0,0,2.53,5.06,11.92,11.92,0,0,0,6.75,1.69,10.93,10.93,0,0,0,5.23-1.18,3.58,3.58,0,0,0,2-3.21q0-3-7.08-4.52a33.17,33.17,0,0,1-4.52-1q-8.94-2.19-12-5.23a10.33,10.33,0,0,1-3.39-8.1,13.41,13.41,0,0,1,4.89-10.62q5.08-3.88,13.16-3.88,8.76,0,14,3.88a14.86,14.86,0,0,1,5.22,10.92h-7.25a5.35,5.35,0,0,1-4.9-2.86l-1.35-1.35a9.09,9.09,0,0,0-5.56-1.52,10,10,0,0,0-5.06,1,3.39,3.39,0,0,0-1.52,3q0,2.7,8.77,4.52a17.91,17.91,0,0,0,1.77.51,6.28,6.28,0,0,0,1.43.17q8.58,2.22,12,5.09a10.6,10.6,0,0,1,3.21,8.09q0,7.42-5.4,11.47-5.06,3.7-15.18,3.71-9.62,0-14.34-3.87-4.89-3.88-4.89-11.31Z" transform="translate(-215.16 -116.49)"/><path class="cls-4" d="M1099.44,318.64h11.47a6.2,6.2,0,0,0,2.53,5.06,12,12,0,0,0,6.75,1.69,10.93,10.93,0,0,0,5.23-1.18,3.57,3.57,0,0,0,2-3.21q0-3-7.08-4.52a33.73,33.73,0,0,1-4.56-1q-8.94-2.19-12-5.23a10.33,10.33,0,0,1-3.39-8.1,13.4,13.4,0,0,1,4.89-10.62q5.06-3.88,13.16-3.88,8.76,0,14,3.88a14.84,14.84,0,0,1,5.22,11h-7.23a5.35,5.35,0,0,1-4.89-2.87l-1.35-1.35a9.14,9.14,0,0,0-5.57-1.52,10.08,10.08,0,0,0-5.09,1,3.4,3.4,0,0,0-1.52,3q0,2.7,8.77,4.53a16.27,16.27,0,0,0,1.78.5,6.28,6.28,0,0,0,1.43.17q8.61,2.2,12,5.06a10.71,10.71,0,0,1,3.2,8.1q0,7.43-5.39,11.47-5.1,3.7-15.19,3.71-9.62,0-14.34-3.88-4.89-3.87-4.89-11.31Z" transform="translate(-215.16 -116.49)"/><path class="cls-6" d="M1173.44,331.63a20.84,20.84,0,0,1-7.5,2.26,68.3,68.3,0,0,1-7,.42,17.73,17.73,0,0,1-10.63-3.29q-4.56-3.28-4.56-10.88,0-7.08,4.14-10.12a23.86,23.86,0,0,1,10.54-4,9.79,9.79,0,0,0,2-.25c.79-.17,1.7-.31,2.7-.43q7.42-1,7.42-4.38a3.19,3.19,0,0,0-2.61-3.29,17.44,17.44,0,0,0-4.81-.76,12.3,12.3,0,0,0-4.21.68,4.53,4.53,0,0,0-2.7,2.53h-11.31a13,13,0,0,1,4.72-8.61q4.53-3.87,13-3.87,9.43,0,14.17,3.2a10.85,10.85,0,0,1,4.89,9.44v15.36q0,6.74-2.45,10.54A15,15,0,0,1,1173.44,331.63Zm-2.7-20.75a31.61,31.61,0,0,1-6.58,2.2l-3.86.83a10.07,10.07,0,0,0-4.39,2.2,6.88,6.88,0,0,0-1.18,3.71,5.46,5.46,0,0,0,1.52,4,6.34,6.34,0,0,0,4.39,1.36,9.34,9.34,0,0,0,10.12-10.12Z" transform="translate(-215.16 -116.49)"/><path class="cls-6" d="M1216.32,330.78v-2.87a12.94,12.94,0,0,1-8.19,5.91,16.74,16.74,0,0,1-10.2-.85,18.68,18.68,0,0,1-8.69-7.5q-3.6-5.49-3.62-14.42,0-10.46,4.8-17t15.44-6.5a27.48,27.48,0,0,1,15,4.39q6.92,4.38,6.92,16.19V332q0,11.81-6.92,16.11a27.81,27.81,0,0,1-15,4.3q-15.52,0-19.23-14.5H1199a9.38,9.38,0,0,0,9.69,4.29,9.07,9.07,0,0,0,5.09-3.28C1215.23,337.07,1216.09,334.38,1216.32,330.78Zm-19.23-19.4q0,11.64,6.75,12.91t10-3.12a12.42,12.42,0,0,0,2.19-5.82,24.61,24.61,0,0,0,.09-7.85,15.73,15.73,0,0,0-2.79-6.91,7.41,7.41,0,0,0-6.41-3q-5.73,0-7.75,4.22a21.85,21.85,0,0,0-2,9.61Z" transform="translate(-215.16 -116.49)"/><path class="cls-6" d="M1233,275.46h6.07a5.76,5.76,0,0,1,5.74,5.73v3.55H1233Zm0,13.16h6.07a5.76,5.76,0,0,1,5.74,5.73v39.13H1233Z" transform="translate(-215.16 -116.49)"/><path class="cls-6" d="M1249.48,275.46h6.07a5.66,5.66,0,0,1,4,1.6,5.26,5.26,0,0,1,1.69,4v52.46h-11.81Z" transform="translate(-215.16 -116.49)"/><path class="cls-6" d="M1297.68,319.65h8.44a18.45,18.45,0,0,1-7.09,10.8c-3.48,2.58-7.87,3.88-13.15,3.87q-9.62,0-15-6.22t-5.4-17.39q0-10.79,5.22-16.87,5.4-6.21,15-6.21,10.13,0,15.69,6.07,5.4,6.21,5.4,17.37v1.86a3,3,0,0,1-.17,1.18h-29.17c.11,3.48,1,6.07,2.53,7.75s3.66,2.71,6.58,2.71a9.53,9.53,0,0,0,4.89-1.19,2.35,2.35,0,0,0,.93-.56l.93-.93a3.63,3.63,0,0,1,1.26-1.35A5,5,0,0,1,1297.68,319.65Zm-20.24-13.16h17.2c-.22-3-1-5.28-2.36-6.74a8.11,8.11,0,0,0-6.22-2.37,8.27,8.27,0,0,0-6.08,2.37A9.63,9.63,0,0,0,1277.44,306.49Z" transform="translate(-215.16 -116.49)"/><path class="cls-4" d="M844.42,255.36l-.15,19.48c.34,12.52-13.69,20.36-14.59,20.87l27.74-15a25.52,25.52,0,0,0,6.29-4.73c5.66-6,5.88-12,5.88-12l1.57-36-18.09,9.79C844,242.62,844.42,255.36,844.42,255.36Z" transform="translate(-215.16 -116.49)"/><path class="cls-9" d="M807.52,320.66l19.37-2.18c12.39-1.85,21.88,11.13,22.48,12l-18.25-25.73a25,25,0,0,0-5.46-5.65c-6.59-4.93-12.63-4.39-12.63-4.39l-35.92,2.79L789,314.21C794.92,322.58,807.52,320.66,807.52,320.66Z" transform="translate(-215.16 -116.49)"/><path class="cls-12" d="M907.69,292.83l-19.49.39c-12.5.7-20.76-13.09-21.28-14l15.79,27.29a25.28,25.28,0,0,0,4.92,6.16c6.1,5.51,12.16,5.53,12.16,5.53l36,.56L925.52,301C920.4,292.09,907.69,292.83,907.69,292.83Z" transform="translate(-215.16 -116.49)"/><path class="cls-6" d="M872.36,356.36l-.78-19.48c-1-12.48,12.67-21,13.56-21.55l-27,16.35a25.08,25.08,0,0,0-6.06,5c-5.39,6.21-5.28,12.27-5.28,12.27l.19,36,17.59-10.67C873.37,369.05,872.36,356.36,872.36,356.36Z" transform="translate(-215.16 -116.49)"/><circle class="cls-9" cx="613.23" cy="222.3" r="12.52"/><circle class="cls-4" cx="608.06" cy="156.22" r="12.52"/><circle class="cls-12" cx="676.32" cy="156.15" r="12.52"/><circle class="cls-6" cx="677.02" cy="223.03" r="12.52"/></g><g id="girl"><path class="cls-13" d="M1092.34,349.77c2.4-4.46,11.85-1,15.26-.3-2.18-4.24-3.92-8.82-2.74-11s3.3-2.18,5.35-1.64a12.52,12.52,0,0,1,6.6,4.48c1.93,2.45,5.16,6.64,8.41,11.23a114.16,114.16,0,0,1-6.3-15.07c-.51-1.45-.31-4.11.94-5s5.08-1.68,9.41,2.15c5.54,4.91,12.5,15.56,12.5,15.56s3.17-2.22,7.72-4.72c-3.06-1.19-11.56-6.52-10.69-9.85,2.23-8.54,33.85,3,33.85,3h0a12.68,12.68,0,0,1,1.89.42c11.61,3.69,23.5,43.54,23.5,43.54l-43.16,18.2c-1.2-.54-2.84-7.79-3.39-9.29q-1.85-5.1-3.67-10.22c-2-5.54-3.31-9.23-7.37-13.73-.28-.3-.1,1-.44.79-10.71,2.56-19.87-2.62-23.57-5.89l.6.9C1106.67,363.72,1089.91,354.3,1092.34,349.77Z" transform="translate(-215.16 -116.49)"/><path class="cls-14" d="M1104.86,338.46c-2.51,4.64,8.18,20.1,8.18,20.1a25.25,25.25,0,0,0,4.49,4.79" transform="translate(-215.16 -116.49)"/><path class="cls-14" d="M1149.74,345.31c7.21-3.94,17.75-8.5,24.78-6.26" transform="translate(-215.16 -116.49)"/><path class="cls-14" d="M1144.88,368.25c-2.29.5-6.21-1.43-6.21-1.43-4.59-2.67-8.85-8.24-12.26-13.92a105.85,105.85,0,0,1-7.13-14.44" transform="translate(-215.16 -116.49)"/><path class="cls-13" d="M1753.51,693.64s16.31,22.24,11.56,26.6-17.85-10.33-17.85-10.33,12,12.72,8.86,20.24-21.76-16-21.76-16,11.33,15.16,7.08,20.7-20.66-17.3-20.66-17.3,3.35,6.32-1.72,11.37-47.13-59.11-47.13-59.11l31.15-28a70,70,0,0,1,36.21,24C1748.06,677.13,1752.28,687.26,1753.51,693.64Z" transform="translate(-215.16 -116.49)"/><path class="cls-14" d="M1739.25,665.82C1751.48,684,1758.61,697,1749.48,695c-8.78-2-23-16.94-23-16.94s-11.87,4.54-23.22-12.7" transform="translate(-215.16 -116.49)"/><line class="cls-14" x1="1496.13" y1="583.26" x2="1505.58" y2="601.04"/><line class="cls-14" x1="1507.04" y1="580.91" x2="1519.15" y2="597.65"/><line class="cls-14" x1="1522.11" y1="578.11" x2="1533.88" y2="595.35"/><polygon class="cls-13" points="1539.46 868.92 1553.62 897.08 1489.37 966.65 1472.33 942.58 1539.46 868.92"/><polygon class="cls-13" points="1141.76 1001.62 1139.83 1035.21 1248.63 1041.66 1246.16 1000.16 1141.76 1001.62"/><path class="cls-15" d="M1404.13,406l-29.6-2.14-1-15.1s-6.68,6.88-8.41,14.42l-12.6-.91s.41-18,11.37-26.88,20.37-13.76,23.66-25.33L1405.36,389Z" transform="translate(-215.16 -116.49)"/><path class="cls-13" d="M1385.48,345.33a53.25,53.25,0,0,1,11.91-20.73c10.8-.74,18.43.14,27,11.89,4.47,6.1,7.76,22.49,13.52,21.35,11.9-2.36,20.92.59,23.65,11.72,3.32,13.53-8.24,24-19.76,22.57,0,0,9,24.45,13.26,32.24,0,0-.81,13.5-23.14,21.37s-35.65-13.22-35.65-13.22c2.18-8.1,7.7-20.79,6.79-27.61a21.81,21.81,0,0,1-10.2-2.94C1374.92,392.13,1380.61,361.36,1385.48,345.33Z" transform="translate(-215.16 -116.49)"/><line class="cls-14" x1="1234.45" y1="255.76" x2="1223.06" y2="265.66"/><line class="cls-14" x1="1232.24" y1="248.36" x2="1238.54" y2="262.35"/><path d="M1403.1,404.91s10.35-.61,22.75-7.33c0,0-5.06,10.84-25.9,23.18Z" transform="translate(-215.16 -116.49)"/><path class="cls-15" d="M1441.84,392.13l4.88,14.59,35.12-3.32-1-16.72s10.09,6.17,9.49,15.92c0,0,15.5-1.81,18.88-4.37,0,0-2.76-16.61-17-24s-15.39-16.16-15.39-16.16-2.63-29.48-13.17-38.27c0,0-21.31-19.76-44.76-14.78-18.63,4-26.66,12.8-31.91,21.71a8.55,8.55,0,0,0,9.35,12.66c4.63-1.15,10.15-3.86,16.27-9.4,0,0,3.19,19.15,24.31,28.64a21.63,21.63,0,0,1,13-.75,15.37,15.37,0,0,1,10.89,17.91C1459.46,382.67,1455,390.54,1441.84,392.13Z" transform="translate(-215.16 -116.49)"/><polygon class="cls-4" points="1127.47 501.21 1096.93 735.67 1122.18 1003.57 1280.9 1001.62 1237.31 768.33 1243.45 682.81 1270.33 767.14 1456.42 960.05 1550.56 856.74 1386.91 675.17 1342.62 502.81 1127.47 501.21"/><g class="cls-16"><path class="cls-5" d="M1485.91,618.76q-11.6,4.86-23,10.12a713.33,713.33,0,0,0-64.14,33.59q3-4.83,5.92-9.7a307.4,307.4,0,0,0,18-34.48l-5.42,0a300.2,300.2,0,0,1-15.49,29.65c-4,6.84-8.21,13.6-12.51,20.28q-30.11,18.39-58.34,39.67l-.9,6.93q25.53-19.51,52.73-36.68c-14,21-29.07,41.28-44.22,61.28q-7,9.21-14.1,18.3l-1.25,9.59q7.23-9.1,14.29-18.31c19.19-25,38.19-50.54,55.35-77.1q23.28-14.16,47.6-26.54,21.18-10.77,43-20.12,7.63-3.27,15.36-6.34Zm277.22,351.6q-2.31,5.55-4.82,11l7.41-8.13Zm-63.2-63.3a656.92,656.92,0,0,0-51.71,43.39c-17.3,16-33.8,32.91-49.72,50.32l3.48,3.61q15.76-17.26,32.38-33.73c15.36-15.16,31.32-29.73,48-43.44,8-6.6,16.21-13,24.61-19.18l-3.35-3.72Zm-238.24,27.07c-16.08,17.13-31.9,34.5-47.19,52.32-21.2,24.7-41.36,50.35-59.39,77.47-7,10.51-13.88,21.37-20,32.63l.87,9.3c3.46-6.89,7.24-13.62,11.18-20.16,16.5-27.41,35.68-53.22,56-78,19-23.23,39.18-45.53,59.7-67.47Zm6.37,34.11-1.42,2.09q-31.92,46.68-65.14,92.45-20.62,28.59-41.51,57l6.22-.07q9.52-13,19-26,34.47-47.31,68.07-95.25,8.07-11.6,16.06-23.25Zm196-107.86a287.61,287.61,0,0,1-13.88,37.16c-12.68,28.17-28.94,54.55-45.51,80.56l-11.14,17.47,3.54,3.68,2.64-4.13c17.26-27,34.7-53.9,48.91-82.62a329.3,329.3,0,0,0,19.52-47.59Zm-89.81-177.2c-4.94,2.07-9.77,4.47-14.52,6.79q-12.51,6.1-24.53,13.15a504.26,504.26,0,0,0-45.87,30.45q6.43-10.22,12.59-20.57a353.7,353.7,0,0,0,23.66-46.48c6.12-15,11.37-31.15,13-47.36l-4.89,0c-.33,2.88-1,5.69-1.31,7.42a186.47,186.47,0,0,1-6.43,24.68c-5.35,16-12.67,31.38-20.84,46.17-8.4,15.2-17.52,30.05-27,44.66-11.06,8.51-21.88,17.34-32.55,26.31q-44.43,37.36-85.31,78.67c-15,15.21-29.93,30.71-44.18,46.76l.65,6.89c8.14-9.19,16.49-18.2,24.87-27.11q38.43-40.85,80.37-78.19c15.52-13.82,31.32-27.41,47.59-40.38-6.92,10.34-14,20.57-21.07,30.75-20.42,29.32-41.74,58-63.54,86.34-20.8,27-42,53.71-63.34,80.34l.67,7.14q26.85-33.51,53.32-67.31c22.57-29,44.74-58.24,66-88.14,13.72-19.26,27.22-38.74,40.09-58.62q12.64-9.69,25.72-18.75a439.81,439.81,0,0,1,45.74-27.87c7.3-3.84,14.74-7.51,22.34-10.74Zm41.55,123.65c-22.77,10.76-43.89,24.72-63.63,40.35q13.84-23,27.08-46.32c5.82-10.28,11.65-20.58,17.27-31l-1.81-7c-2.92,5.3-5.91,10.55-8.78,15.77q-21.75,39.6-45.42,78.12c-14.83,12.54-28.91,25.93-42.6,39.72l3.46,3.59c9.5-9.56,19.19-18.92,29.18-28l1.09-1q-1.49,2.4-3,4.79-9.93,15.87-20.11,31.59l3.56,3.69q3.21-4.92,6.37-9.86,13.15-20.52,25.91-41.32c17.86-15.07,36.81-28.87,57.23-40.25,5.65-3.15,11.49-6.36,17.49-9.23Z" transform="translate(-215.16 -116.49)"/><path class="cls-5" d="M1661.89,1122.41c-3.47,4.7-11.38,3.5-15.53-.08-6-5.17-7-14.09-7.45-21.49a141.16,141.16,0,0,1,7.51-52.39,191.46,191.46,0,0,1,24.24-47.78c10.37-15.06,22.58-28.78,35.6-41.57s27.19-24.93,41.43-36.63l5.32-4.36a2.5,2.5,0,0,0,0-3.53,2.54,2.54,0,0,0-3.53,0c-14.92,12.15-29.69,24.54-43.57,37.89a306.09,306.09,0,0,0-37.71,43,198.41,198.41,0,0,0-26,50c-6.06,17.58-9.24,36.31-8.26,54.92.45,8.57,1.77,17.87,7.86,24.4,5,5.32,13.88,7.5,20.41,3.84a12.86,12.86,0,0,0,4-3.72,2.52,2.52,0,0,0-.9-3.42,2.56,2.56,0,0,0-3.42.9Z" transform="translate(-215.16 -116.49)"/></g><path class="cls-17" d="M1401.17,414.74a144.21,144.21,0,0,0-38.57,4.74c-9.62,2.54-21.14,5.63-33.14,8.32-39.65,8.86-76.66.79-96.46-34.69l-35.92-49.79L1129.52,385s39.17,67.2,61.08,104.56C1212,526,1338.43,522,1338.43,522l4.2,95.7L1564,619.35l-13.66-52.47L1660,685.3l63.85-50.14S1584,429.42,1531.63,413.73c-57.59-17.24-79.87,3.51-79.87,3.51a15.76,15.76,0,0,1-.07,15.16c-3.91,7.13-29.92,26.39-47.86,8-6.21-6.38-7-12.24-4.2-20.69.12-.35,1.41-4.59,1.54-4.94Z" transform="translate(-215.16 -116.49)"/><line class="cls-18" x1="1243.2" y1="682.98" x2="1225.13" y2="596.47"/><path class="cls-7" d="M1255.68,1204.68s-15.11-13.13,45.12-39.62c0,0,65.86-39.68,82.83-35.33s4.77,23.69,4.77,23.69l74.44-.19.12,47.29S1251,1208.2,1255.68,1204.68Z" transform="translate(-215.16 -116.49)"/><polygon class="cls-15" points="1247.76 1084.51 1245.79 1106.72 1207.66 1107.09 1198 1091.27 1185.21 1104.76 1039.55 1107.2 1040.52 1088.84 1247.76 1084.51"/><path class="cls-7" d="M1674.76,1205.2s-19.77,3.11-1.26-60c0,0,12-75.93,26.3-86.12s21.2,11.6,21.2,11.6l47.78-57.08,36.27,30.36S1674.43,1211.07,1674.76,1205.2Z" transform="translate(-215.16 -116.49)"/><polygon class="cls-15" points="1590.22 927.77 1605.95 943.58 1581.67 972.99 1563.36 970.2 1565.44 988.66 1473.52 1101.69 1460.1 1089.13 1590.22 927.77"/><polygon class="cls-15" points="1123.27 407.51 1120.31 361.48 1109.36 407.55 1123.27 407.51"/><polygon class="cls-15" points="1338.17 453.59 1294.04 394.56 1344.48 485.99 1338.17 453.59"/></g><g id="right_man" data-name="right man"><path class="cls-13" d="M1730.36,757.82l10.52,52.74s-40.87,5.86-52-.45c0,0-.43,12.36-5.53,12.2s-4.51-6.39-4.51-6.39-2.12,8.94-6.92,8.22-4.77-11.45-4.77-11.45-3,12.91-8.32,11.85-.77-26.8-.77-26.8-7.8,26.08-13,28.31-7.15-10.87-4.17-26.93c.7-3.81,1.5-7.25,2.31-10.3a30.22,30.22,0,0,1,26.94-22.49l.54,0c12-.82,26.34-.95,34.61-.94a34.38,34.38,0,0,0,13.22-2.63Z" transform="translate(-215.16 -116.49)"/><path class="cls-19" d="M1678.7,815a38.71,38.71,0,0,1,.85-6.36,38.14,38.14,0,0,1,2.09-6.55" transform="translate(-215.16 -116.49)"/><path class="cls-19" d="M1667.15,812.69a15.94,15.94,0,0,1,.79-9.29,38.92,38.92,0,0,1,2.89-4.59" transform="translate(-215.16 -116.49)"/><path class="cls-19" d="M1675.47,787.45c-16.73-2.35-18.52,11.87-18.52,11.87l-.7,4.06" transform="translate(-215.16 -116.49)"/><path class="cls-20" d="M1822.17,845.13l-115.68-16.52,21.77-90.85L1815,743c-.66,0,5.27-70.45,6.27-77,4.32-28.21,14.64-46.71,39-62,20.18-12.64,46.21-5.22,68.18-3,0,0,37.45,7.26,54.32-2.09,0,0,49.32-22.59,96.27,20.13s34.88,240.81,34.88,240.81l-259.57-5.15Z" transform="translate(-215.16 -116.49)"/><path class="cls-21" d="M2157.43,1301.82c-.09-.61-9.1-61.8-24-124.42-26.31-110.4-47.46-129.32-55.33-132.33-21.85-8.36-63.54-11.26-117.38-8.18a58.6,58.6,0,0,0-51.5,37.93c-17.93,47.82-47.74,140.23-46,221.77l-20,.44c-1.85-84.9,28.8-180.06,47.23-229.24a78.64,78.64,0,0,1,69.09-50.87c40-2.29,94.35-2.51,125.66,9.47,14.46,5.53,27.21,23,40.11,55,9.35,23.2,18.63,54,27.57,91.5,15.12,63.48,24.23,128.44,24.33,129Z" transform="translate(-215.16 -116.49)"/><path class="cls-6" d="M2117.21,855.93l-86,38.48L1799.39,998.2l-25.48,204.68-148.07-9.49q1.53-9.81,3.11-20.46c16-107,37.25-269.89,80.94-294.7,3.19-1.81,6.48-3.52,9.84-5.12h0c17.43-8.33,36.79-14,54.06-17.77a358.63,358.63,0,0,1,50.59-7.46l202.84,5.59Z" transform="translate(-215.16 -116.49)"/><path class="cls-22" d="M2031.26,894.41,1799.39,998.2l-25.48,204.68-148.07-9.49a76.77,76.77,0,0,1,3.41-13s87.45,16.94,94.35-68.08c4.37-53.93-8.72-106.21-18.88-137.24-9.6-29.33-7.46-61.42,6.75-88.8a90,90,0,0,1,8.26-13.19h0l54.06-17.77a358.63,358.63,0,0,1,50.59-7.46l202.84,5.59Z" transform="translate(-215.16 -116.49)"/><path class="cls-13" d="M1811.82,777.87l-1.35,53.76s-41.16-3.28-50.63-11.88c0,0-3.13,12-8.07,10.69s-3-7.23-3-7.23-4,8.25-8.57,6.49-2.13-12.22-2.13-12.22-5.71,11.94-10.72,9.73,5.15-26.31,5.15-26.31-13.35,23.72-19,24.74-4.59-12.17,1.85-27.18c1.53-3.56,3.06-6.75,4.52-9.55a30.24,30.24,0,0,1,31.23-16l.54.08c11.88,1.85,25.9,4.88,34,6.7a34.36,34.36,0,0,0,13.48.35Z" transform="translate(-215.16 -116.49)"/><path class="cls-19" d="M1748.84,822.28l3.33-7.27s4.29-7.76,9.83-9.84" transform="translate(-215.16 -116.49)"/><path class="cls-19" d="M1738.08,817.48l5-11.31s3.63-8.61,9.12-10.69" transform="translate(-215.16 -116.49)"/><path class="cls-19" d="M1732,801.88s3-13.49,12.4-16.78" transform="translate(-215.16 -116.49)"/><path class="cls-20" d="M2070.17,611.83s-48-25.58-79.19,39.29c-14,29.12-29.67,54.25-45.71,81.62l-11.65,17.86-128.77,16.1-4.75,85.07S1963.61,866.84,2008,831s78.58-84.72,78.58-84.72" transform="translate(-215.16 -116.49)"/><polygon class="cls-8" points="1558.74 729.54 1558.75 712.16 1371.55 712.06 1336.4 513.01 1319.29 516.03 1356.97 729.43 1558.74 729.54"/><path class="cls-21" d="M2126.76,850.3l37-157.06a18,18,0,0,1,18.88-13.78l6.17.49a18,18,0,0,1,16.08,22L2140,980.3a72,72,0,0,1-68.79,55.61l-184,3.32-5.08-34.56,164.58-6.52a61,61,0,0,0,57.08-47.39l23-100.46" transform="translate(-215.16 -116.49)"/><path class="cls-6" d="M2117.31,855.93s7.94,100.59-59.75,132.35c-54.51,25.58-166.41,16.39-166.41,16.39L1943,1249.5l-152,10.26s-75.6-248.54-80.15-284.15,3-100.88,98.88-109.05l95.88-8.16" transform="translate(-215.16 -116.49)"/><path class="cls-13" d="M1942.32,578.82s-15.22,27.65-8.83,40.49,20.6,16.15,38,12.39c0,0,20.94-5.8,13.57-32.86l-7.38-27.06Z" transform="translate(-215.16 -116.49)"/><path d="M1978.4,574.49s-21.92,13.86-39.1,9.53c0,0,13.37,14.85,43.6,7Z" transform="translate(-215.16 -116.49)"/><path class="cls-13" d="M1995.89,531.9a10.59,10.59,0,0,0-3.41-.19c-2.06-19.37-14.45-35.07-31.5-37.66-18.47-2.81-36.27,10.67-43,31.15l-.4,0c-7.6-.13-13.9,7.9-14.08,18s5.83,18.3,13.43,18.43a9.9,9.9,0,0,0,1.64-.1c5.06,13.09,15.37,22.73,28.41,24.72,14.86,2.26,29.29-6,37.87-20a10.68,10.68,0,0,0,3.21,1.28c7.42,1.64,15.19-5,17.36-14.8S2003.31,533.54,1995.89,531.9Z" transform="translate(-215.16 -116.49)"/><path class="cls-15" d="M2002.79,559.36c12.14-8.08,16.72-23.25,11.47-35.41-4.27-9.91-14.5-16.5-26-16.77,0,0,1-7.11-5.42-21.13s-48.95-27.5-66.75-2.21,1.52,39.63,1.52,39.63c27.59,12.86,47.73-8.56,47.73-8.56a19.63,19.63,0,0,0,9.54,19.11c7.72,4.32,15.64,1.22,16.69.79a12.29,12.29,0,0,1,10,1.46C2006.85,540,2007.87,552.08,2002.79,559.36Z" transform="translate(-215.16 -116.49)"/><line class="cls-23" x1="1772.39" y1="440.05" x2="1783.81" y2="430.49"/><line class="cls-23" x1="1781.55" y1="424.39" x2="1784.9" y2="435.4"/><path class="cls-23" d="M1918,525.2s-5.59,19.52.59,36.26" transform="translate(-215.16 -116.49)"/><path class="cls-24" d="M1758.38,1201.5l14.94,84.35-195.7,20.35s-3.66-46.16,18-58.39,45.89-31.34,58.57-52.61Z" transform="translate(-215.16 -116.49)"/><path d="M1770.66,1265.34l2.57,19.7-195.42,23s-1-16.53-.44-22.23Z" transform="translate(-215.16 -116.49)"/><path class="cls-25" d="M1643.2,1222.16s-13.08-18.66-31.25-10.83S1628,1235.47,1643.2,1222.16Z" transform="translate(-215.16 -116.49)"/><path class="cls-25" d="M1642.63,1222.23s12.14-17.13,29.55-8.51-.09,17.31-13,16.24S1642.63,1222.23,1642.63,1222.23Z" transform="translate(-215.16 -116.49)"/><path class="cls-25" d="M1761.54,1231.06s-42,3.65-41.8,40.39" transform="translate(-215.16 -116.49)"/><path class="cls-24" d="M1939.63,1250.06l6.09,94.4-196.61,7.48s-.62-46.31,21.78-57.08,47.53-16.63,61.59-37Z" transform="translate(-215.16 -116.49)"/><path d="M1944.41,1323.82l1.28,19.84-196.51,10.15s.1-16.56,1-22.2Z" transform="translate(-215.16 -116.49)"/><path class="cls-25" d="M1820.06,1272.38s-11.83-19.48-30.47-12.85S1804,1284.67,1820.06,1272.38Z" transform="translate(-215.16 -116.49)"/><path class="cls-25" d="M1819.48,1272.41s13.25-16.3,30-6.55-1.23,17.26-14,15.36S1819.48,1272.41,1819.48,1272.41Z" transform="translate(-215.16 -116.49)"/><path class="cls-25" d="M1937.56,1289s-42.15.88-44.36,37.56" transform="translate(-215.16 -116.49)"/><path class="cls-26" d="M1773.91,1202.88s-58.48-191.66-63-227.27,3-100.88,98.88-109.05l95.88-8.16" transform="translate(-215.16 -116.49)"/><polyline class="cls-27" points="1666.98 854.15 1675.98 888.19 1641.17 877.13"/><path class="cls-28" d="M2070.17,611.83s-48-25.58-79.19,39.29c-14,29.12-29.67,54.25-45.71,81.62l-11.65,17.86-128.77,16.1-4.75,85.07S1963.61,866.84,2008,831s78.58-84.72,78.58-84.72" transform="translate(-215.16 -116.49)"/><line class="cls-28" x1="1599.84" y1="626.51" x2="1631.5" y2="626.51"/><polygon class="cls-15" points="1646.81 626.51 1643.24 578.72 1631.49 626.51 1646.81 626.51"/><path class="cls-29" d="M1873.74,1251.25s-81.57-229.29-71.69-280.61,166.14-43.15,166.14-43.15,81.7,4.48,92.94-69.76" transform="translate(-215.16 -116.49)"/></g><g id="left_man" data-name="left man"><path class="cls-20" d="M980.92,1211.5l6.06,90,191.47-18.1s-5.26-43.86-28.34-51.18-48.17-9.63-64.37-27.11Z" transform="translate(-215.16 -116.49)"/><path d="M985.71,1282.62l1.43,21.28L1178.69,1286s-2.2-15.65-3.8-20.87Z" transform="translate(-215.16 -116.49)"/><path class="cls-30" d="M987.86,1248.07s41-4.56,47.75,29.83" transform="translate(-215.16 -116.49)"/><line class="cls-30" x1="862.55" y1="1109.28" x2="889.56" y2="1101.92"/><line class="cls-30" x1="874.95" y1="1119.58" x2="907.79" y2="1109.57"/><path class="cls-13" d="M990.77,784.77l-.49-.22C988.87,784.81,988.82,784.85,990.77,784.77Z" transform="translate(-215.16 -116.49)"/><path class="cls-13" d="M1091.61,741.4c-5-3.13-16.77,1.05-16.77,1.05s4.49-10.66,2.37-14.54c-3-5.5-9.47,2.46-9.47,2.46s-6.26,10.21-13.45,14.41a101.75,101.75,0,0,0,7.31-18.28,4.41,4.41,0,0,0-1.47-4.73c-1.38-1-3.49-1.33-6.41,1.53-5.84,5.72-16.77,17.76-16.77,17.76s-3.61-2.66-8.77-5.67c3.33-1.36,9.83-5.11,9-9.08-1.55-7-34.9.68-34.9.68h0c-.72.1-18.65,5.86-19.31,6.08-12.67,4.14-6.62,45.14-6.62,45.14l14,6.33c4.29-.78,21.24-3.51,33.45-10.63h0a155,155,0,0,0,55.56-19.08S1095.9,744.08,1091.61,741.4Z" transform="translate(-215.16 -116.49)"/><path class="cls-19" d="M1023.71,773.86a43.7,43.7,0,0,0,6-2.07,31.27,31.27,0,0,0,7-4.95,81.36,81.36,0,0,0,10.82-10.9,70.72,70.72,0,0,0,7.61-12.81" transform="translate(-215.16 -116.49)"/><path class="cls-19" d="M1074.84,742.45a50.82,50.82,0,0,1-3.49,6.36,55.52,55.52,0,0,1-7.63,9,61.06,61.06,0,0,1-8.87,7.93" transform="translate(-215.16 -116.49)"/><path class="cls-19" d="M1028.18,735.39s-19.29-11.27-33.89-5.94" transform="translate(-215.16 -116.49)"/><path class="cls-21" d="M572.57,1308.7l-19.79.11c.09-.62,9.2-62.58,24.32-126.06,8.94-37.51,18.22-68.3,27.57-91.5,12.91-32,25.65-49.46,40.11-55,23-8.79,60.74-12.94,112.24-12.33a93.29,93.29,0,0,1,86.57,62c20.62,58.46,44.84,144.24,43.17,220.94l-20-.44c1.61-73.68-22-157-42-213.84a73.21,73.21,0,0,0-68-48.69c-48.28-.57-84.54,3.24-104.86,11-7.87,3-29,21.93-55.33,132.33C581.66,1249.9,572.66,1308.09,572.57,1308.7Z" transform="translate(-215.16 -116.49)"/><path class="cls-6" d="M906.41,851l115.69-35.11-33.38-89-77.6,12.78c-3.07-36.29-9.73-68.85-22.82-103.45-4-10.48-10.48-20.33-20-26.27-20.19-12.64-46.21-5.22-68.19-3,0,0-37.44,7.26-54.31-2.08,0,0-49.33-22.6-96.27,20.12S614.68,865.8,614.68,865.8l259.57-7.15Z" transform="translate(-215.16 -116.49)"/><path class="cls-13" d="M791.8,584.47s15.94,29.06,8.94,42.39S778.5,643.48,760,639.34c0,0-22.35-6.31-14.12-34.47l8.23-28.17Z" transform="translate(-215.16 -116.49)"/><path class="cls-15" d="M753.23,579.51s23.29,14.74,41.74,10.43c0,0-14.5,15.34-46.76,6.78Z" transform="translate(-215.16 -116.49)"/><path class="cls-13" d="M735,534.82a11.8,11.8,0,0,1,3.65-.15c2.45-20.21,15.9-36.45,34.18-39,19.8-2.71,38.69,11.58,45.65,33.06l.43,0c8.13,0,14.78,8.42,14.85,18.91s-6.47,19.05-14.61,19.09a11.27,11.27,0,0,1-1.75-.12c-5.57,13.61-16.73,23.55-30.71,25.47-15.93,2.18-31.28-6.65-40.29-21.38A11.41,11.41,0,0,1,743,572c-8,1.62-16.19-5.4-18.39-15.67S727.08,536.45,735,534.82Z" transform="translate(-215.16 -116.49)"/><line class="cls-14" x1="528.49" y1="444.17" x2="516.39" y2="434.05"/><line class="cls-14" x1="518.88" y1="427.7" x2="515.16" y2="439.16"/><path class="cls-14" d="M818.09,529.48s5.74,20.44-1.08,37.86" transform="translate(-215.16 -116.49)"/><path class="cls-15" d="M771.23,519.64s.7,11.14-14.23,18.8c-13.34,6.84-30.19-.43-30.42-15.9-.18-12.09,6.95-26.54,18.2-32.31,1.64-.83,9.44-2.36,15.4.58,0,0,5.09-18.25,22.2-19.13s16.3,14.52,16.3,14.52,8.09-8.55,18.51-3.27,2.42,16.58.47,18.05c0,0,13.3,9,7.61,18.94-2.37,4.13-8.07,6.27-13.91,7.36A55.26,55.26,0,0,1,783.49,525,63.18,63.18,0,0,1,771.23,519.64Z" transform="translate(-215.16 -116.49)"/><path class="cls-13" d="M923.39,781.56l1.34,53.75s41.16-3.27,50.63-11.88c0,0,3.14,12,8.08,10.69s3-7.23,3-7.23,4,8.26,8.56,6.49,2.13-12.21,2.13-12.21,5.72,11.94,10.72,9.72-5.14-26.3-5.14-26.3,13.34,23.72,19,24.74,4.58-12.18-1.86-27.19-13.07-23.46-13.07-23.46-5.35-4.78-23.21-2c-11.88,1.85-25.91,4.88-34,6.7a34.55,34.55,0,0,1-13.48.35Z" transform="translate(-215.16 -116.49)"/><path class="cls-19" d="M986.36,826,983,818.7s-4.28-7.77-9.82-9.84" transform="translate(-215.16 -116.49)"/><path class="cls-19" d="M997.12,821.17l-5-11.31s-3.62-8.62-9.12-10.69" transform="translate(-215.16 -116.49)"/><path class="cls-19" d="M1003.25,805.56s-3-13.49-12.39-16.77" transform="translate(-215.16 -116.49)"/><path class="cls-24" d="M907.56,857.73s68,3.92,114.54,30.37,67.7,209.94,84.05,315.16l-148.07,9.5L932.6,1008.07" transform="translate(-215.16 -116.49)"/><path class="cls-6" d="M658.42,617.69s48-25.58,79.18,39.3c14,29.11,29.68,54.24,45.71,81.61L795,756.47l128.77,16.09,4.74,85.07S765,872.71,720.56,836.87,642,752.15,642,752.15" transform="translate(-215.16 -116.49)"/><path class="cls-21" d="M603.23,860.17,566.11,702.73a17.48,17.48,0,0,0-18.39-13.42l-7.11.56A17.48,17.48,0,0,0,525,711.27l62.52,268.19A86.08,86.08,0,0,0,669.75,1046l173,3.12,5.08-34.55-145.42-5.77a86.07,86.07,0,0,1-80.51-66.84l-18.68-81.77" transform="translate(-215.16 -116.49)"/><path class="cls-28" d="M658.42,617.69s48-25.58,79.18,39.3c14,29.11,29.68,54.24,45.71,81.61L795,756.47l128.77,16.09,4.74,85.07S765,872.71,720.56,836.87,642,752.15,642,752.15" transform="translate(-215.16 -116.49)"/><path class="cls-17" d="M614.68,865.8s-7.94,100.59,59.75,132.36c54.51,25.57,166.41,16.39,166.41,16.39L789,1259.37l152,10.26s75.59-248.53,80.14-284.15-3-100.88-98.88-109l-95.88-8.17" transform="translate(-215.16 -116.49)"/><polygon class="cls-8" points="742.92 731.33 742.91 713.95 930.11 713.85 965.26 514.8 982.37 517.82 944.69 731.22 742.92 731.33"/><path class="cls-20" d="M805.72,1261.14,801,1351.25l192.26,4.82s0-44.17-22-54.19-46.68-15.3-60.68-34.58Z" transform="translate(-215.16 -116.49)"/><path d="M802,1332.32l-1.12,21.3,192.32,5s-.32-15.79-1.28-21.17Z" transform="translate(-215.16 -116.49)"/><path class="cls-30" d="M808.27,1298.27s41.2.35,43.85,35.3" transform="translate(-215.16 -116.49)"/><line class="cls-30" x1="684.97" y1="1170.33" x2="712.66" y2="1166.24"/><line class="cls-30" x1="696.06" y1="1182.04" x2="729.85" y2="1176.01"/><line class="cls-14" x1="659.08" y1="628.57" x2="696.36" y2="622.94"/><circle class="cls-31" cx="432.26" cy="713.6" r="12.67"/><circle class="cls-31" cx="466.43" cy="521.39" r="12.67"/><circle class="cls-31" cx="498.9" cy="593.98" r="12.67"/><circle class="cls-31" cx="533.05" cy="700.92" r="12.67"/><circle class="cls-31" cx="548.94" cy="637.62" r="12.67"/><circle class="cls-31" cx="631.81" cy="722.15" r="12.67"/><circle class="cls-31" cx="671.68" cy="682.68" r="12.67"/><circle class="cls-31" cx="597.47" cy="620.26" r="12.67"/><circle class="cls-31" cx="683.69" cy="606.66" r="12.67"/><circle class="cls-31" cx="623.48" cy="575.53" r="12.67"/><circle class="cls-31" cx="747.87" cy="638.23" r="12.67"/><circle class="cls-31" cx="663.09" cy="548.86" r="12.67"/><circle class="cls-31" cx="623.48" cy="514.87" r="12.67"/><circle class="cls-31" cx="558.1" cy="555.96" r="12.67"/><circle class="cls-31" cx="597.47" cy="676.4" r="12.67"/><circle class="cls-31" cx="483.68" cy="661.95" r="12.67"/><circle class="cls-31" cx="432.26" cy="585.44" r="12.67"/><polygon class="cls-15" points="642.39 577.64 661.11 628.57 644.16 630.24 642.39 577.64"/><path class="cls-32" d="M840.84,1014.55,789,1259.37l152,10.26s75.59-248.53,80.14-284.15-3-100.88-98.88-109l-95.88-8.17" transform="translate(-215.16 -116.49)"/><polyline class="cls-32" points="642.39 871.81 625.68 898.06 663.09 898.04"/><path class="cls-32" d="M686.75,865.8s-4.81,58.29,54.93,75,156.73,4,175.41,29.39c39.64,53.89-52,292.66-52,292.66" transform="translate(-215.16 -116.49)"/></g><g id="flower"><path class="cls-33" d="M445.75,967.35a41.46,41.46,0,0,1-32.75.9c-32.41-12.93-44.42-48.15-43.71-92.68.09-6.24.43-12.66,1-19.22,5.79-66.19,11.48-102.1,11.48-102.1s10.92,8.35,25.62,22.08h0c28.31,26.43,70.62,72.75,76,117.65C488.89,939.34,463.44,959.16,445.75,967.35Z" transform="translate(-215.16 -116.49)"/><path class="cls-7" d="M445.75,967.35a41.46,41.46,0,0,1-32.75.9c-32.41-12.93-44.42-48.15-43.71-92.68,15.2,44.4,30.22,65.36,50.14,63.32a39.17,39.17,0,0,0,8.47-1.76c15.3-5,25.61-20.54,27.78-57.47,2.53-43.08-47.51-102.42-48.27-103.32h0c28.31,26.43,70.62,72.75,76,117.65C488.89,939.34,463.44,959.16,445.75,967.35Z" transform="translate(-215.16 -116.49)"/><path class="cls-34" d="M386.07,768.91s41.23,70.35,44.27,121c.88,14.64-.63,30.46-2.44,47.23-1.17,10.91-2.46,22.23-3.3,33.89-.2,2.78-.38,5.57-.51,8.39-1.08,21.63-.16,44.34,6.32,67.73.4,1.48.84,3,1.3,4.44h0a167.4,167.4,0,0,0,8.93,23l1.89,4,31,65.26" transform="translate(-215.16 -116.49)"/><path class="cls-33" d="M668.92,954S652.53,978.09,612,987.09c-28.11,6.25-67.84,5.26-121.79-16,0,0,25.25-85,109.12-67.29A105.06,105.06,0,0,1,612,908.24h0C627.25,914.57,652.85,928.33,668.92,954Z" transform="translate(-215.16 -116.49)"/><path class="cls-7" d="M612,987.09c-28.11,6.25-67.84,5.26-121.79-16,0,0,25.25-85,109.12-67.29A105.06,105.06,0,0,1,612,908.24h0s-51.11,1-62.34,33.71S612,987.09,612,987.09Z" transform="translate(-215.16 -116.49)"/><path class="cls-33" d="M376.06,1013.88s-2.92,63.41-91.94,94.43c-16.94,5.91-37,10.64-60.76,13.54,0,0-19-36.47.89-76.38A103.6,103.6,0,0,1,246.74,1016C299.61,966.7,376.06,1013.88,376.06,1013.88Z" transform="translate(-215.16 -116.49)"/><path class="cls-7" d="M376.06,1013.88s-2.92,63.41-91.94,94.43c24.6-16.89,35-64.1,32.33-74.44s-20.84-16.51-20.84-16.51c-33.76-8.85-71.36,28.11-71.36,28.11A103.6,103.6,0,0,1,246.74,1016C299.61,966.7,376.06,1013.88,376.06,1013.88Z" transform="translate(-215.16 -116.49)"/><path class="cls-34" d="M230.43,1116.17s21.93-79.87,85.93-96.75,100.92,15.32,100.92,15.32,30.42,21.12,60.6,90.22" transform="translate(-215.16 -116.49)"/><path class="cls-34" d="M452.91,1179.11s-11.49-7.87-22.59-89.86,70.82-124,70.82-124S593,920.51,663,952.17" transform="translate(-215.16 -116.49)"/><line class="cls-34" x1="156.4" y1="725.82" x2="210.68" y2="746.24"/><line class="cls-34" x1="154.66" y1="745.99" x2="214.12" y2="769.3"/><line class="cls-34" x1="213.36" y1="814.79" x2="262.71" y2="754.99"/><line class="cls-34" x1="344.94" y1="829.43" x2="413" y2="865.84"/><line class="cls-34" x1="320.69" y1="835.69" x2="390.71" y2="871.81"/><line class="cls-34" x1="54.75" y1="930.93" x2="60.09" y2="991.82"/><line class="cls-34" x1="65.51" y1="921.18" x2="74.57" y2="987.24"/><line class="cls-34" x1="47.8" y1="887.62" x2="104.55" y2="902.09"/><rect class="cls-6" x="138.99" y="962.11" width="187.94" height="229.62"/><path class="cls-22" d="M354.16,1241.36s93.25,42.55,129.61-20.76,40.72-142,40.72-142H542.1v229.63c0-2.18-187.94,0-187.94,0Z" transform="translate(-215.16 -116.49)"/></g><g class="cls-35"><path class="cls-5" d="M520.09,1220c-2.19,1.77-4.36,3.59-6.48,5.45a230.47,230.47,0,0,0-57.86,78.43q-1,2.16-1.89,4.35h5.4a225.87,225.87,0,0,1,20.34-36.79A222.9,222.9,0,0,1,510,1235.55c1.47-1.41,3-2.81,4.48-4.18q-1.91,3.84-3.84,7.66c-9.5,18.85-19.28,37.57-29.49,56q-3.64,6.6-7.43,13.14h5.77c10.5-18.21,20.24-36.87,29.83-55.57q7.51-14.69,14.8-29.5,1.81-1.47,3.66-2.88a156.2,156.2,0,0,1,14.35-10v-5.77c-3,1.68-5.89,3.54-8.71,5.48-1.5,1-3,2.09-4.46,3.17q4.79-9.9,9.43-19.87,1.89-4.05,3.74-8.11v-12.26q-1.87,4.35-3.82,8.65C532.44,1194.49,526.34,1207.28,520.09,1220Zm19.21-122.37c-9.17,3.81-17.57,9.54-25.38,15.6-7,5.47-13.65,11.44-20.14,17.55,3.6-6.75,7.05-13.57,10.14-20.56,4.12-9.3,7.93-19,10-29,.18-.86.33-1.73.44-2.6.54-4.09.29-8.32-1.93-11.92a17.73,17.73,0,0,0-9.9-7.3c-9.74-3-20,1.73-28.66,6a174.41,174.41,0,0,0-22.39,13.27c-4.73,3.28-9.35,6.73-13.89,10.29a60.94,60.94,0,0,0,3.87-10.29,24.07,24.07,0,0,0,.78-6.75c-.21-5.33-2.92-10.91-8-13.13-6.17-2.7-13.18.52-18.8,3.2A125.22,125.22,0,0,0,398.62,1072q-4.74,3.26-9.44,6.59-3.53,2.49-7,5-14.16,10.19-28,20.86v6.3q10.47-8.18,21.16-16c7.39-5.44,14.81-10.93,22.39-16.14,3.13-2.16,6.28-4.26,9.48-6.3a78.82,78.82,0,0,1,16.57-8.49c2.66-.91,5.79-1.73,8.49-.51a8.48,8.48,0,0,1,4.22,4.93c1.23,3.39.79,7-.22,10.37a59.59,59.59,0,0,1-2.43,6.39c-1.62,3.83-3.44,7.57-5.39,11.23l-4,3.3q-23.85,19.86-45.67,42c-8.46,8.6-16.73,17.41-24.61,26.55v7.68c6-7.18,12.33-14.13,18.76-21q20.73-22,43.51-41.91l4.46-3.89c-4.65,7.24-9.74,14.19-15,21-7.33,9.42-15,18.57-22.42,27.91s-14.51,19-21.54,28.63q-3.86,5.29-7.75,10.59v8.31q4-5.28,7.85-10.6c7.2-9.85,14.3-19.78,21.82-29.4s15.55-19.19,23.21-28.89a291.1,291.1,0,0,0,21.37-30.14q2.13-3.53,4.07-7.16a285.6,285.6,0,0,1,28-20.63c.87-.56,1.75-1.11,2.63-1.65,4.07-2.5,8.24-4.83,12.51-7a76,76,0,0,1,13.72-5.59c4.24-1.14,8.78-1.49,12.93.18a11.15,11.15,0,0,1,7.08,8,16.9,16.9,0,0,1,0,6.06,68.17,68.17,0,0,1-2.06,8.11c-1.39,4.82-3,9.57-4.89,14.24a263.5,263.5,0,0,1-12.79,27q-3.87,7.27-7.93,14.47-16.77,16.5-32.39,34.14-20.06,22.65-38.09,47t-33.82,50c-6.88,11.21-13.54,22.71-18.93,34.74H364c3.67-7.89,7.85-15.53,12.25-23,9.91-16.87,20.68-33.25,32.05-49.17s23.32-31.2,36-46q13.32-15.64,27.58-30.47-6.48,11-13.21,21.86c-10.81,17.51-21.91,34.84-32.81,52.29-10.22,16.37-20,33-30.37,49.28-5.52,8.63-11.3,17.13-17.54,25.26h6.25q4.35-5.84,8.44-11.86c11-16.11,20.74-33,31-49.57,11.14-18.08,22.61-36,33.85-54,9.74-15.61,19.32-31.34,28.34-47.37,6.37-6.27,12.85-12.45,19.51-18.41a175.62,175.62,0,0,1,22.8-17.7,95.41,95.41,0,0,1,12.43-6.8q.79-.36,1.65-.69v-5.23C541.13,1096.91,540.19,1097.25,539.3,1097.62Z" transform="translate(-215.16 -116.49)"/></g><g id="bubbles"><circle class="cls-36" cx="1695.73" cy="129.09" r="39.24"/><circle class="cls-36" cx="316.05" cy="255.36" r="43.73"/><circle class="cls-36" cx="154.9" cy="182.52" r="24.96"/><circle class="cls-36" cx="1832.89" cy="258.71" r="18.41"/><circle class="cls-36" cx="1903.53" cy="59.75" r="18.41"/></g><polygon id="table" class="cls-21" points="1562.36 752.42 1562.34 728.53 723.8 728.98 723.81 752.87 826.62 752.82 826.75 1191.41 850.65 1191.4 850.51 752.81 1420.68 752.5 1430.79 1191.67 1454.67 1191.15 1444.58 752.49 1562.36 752.42"/></g></g></svg>