<svg xmlns="http://www.w3.org/2000/svg" xmlns:xlink="http://www.w3.org/1999/xlink" viewBox="0 0 2560 1440"><defs><style>.cls-1,.cls-10,.cls-12,.cls-13,.cls-18,.cls-21,.cls-23,.cls-30,.cls-31,.cls-32,.cls-34,.cls-37,.cls-38,.cls-39,.cls-40,.cls-41,.cls-8{fill:none;}.cls-2{isolation:isolate;}.cls-17,.cls-3{fill:#fff;}.cls-4{fill:#fbfafd;}.cls-5{fill:#b6b1ca;}.cls-6{fill:#f6f3fa;}.cls-7{fill:#f4bd03;}.cls-18,.cls-8{stroke:#7a5cbd;}.cls-10,.cls-13,.cls-18,.cls-23,.cls-30,.cls-34,.cls-39,.cls-40,.cls-41,.cls-8{stroke-linecap:round;}.cls-10,.cls-12,.cls-18,.cls-21,.cls-23,.cls-24,.cls-30,.cls-31,.cls-32,.cls-34,.cls-37,.cls-38,.cls-39,.cls-40,.cls-41,.cls-8{stroke-miterlimit:10;}.cls-8{stroke-width:3px;}.cls-9{fill:#fec2a0;}.cls-10,.cls-12,.cls-13,.cls-21,.cls-31,.cls-32,.cls-34,.cls-37,.cls-38,.cls-39{stroke:#1d1d1b;}.cls-10,.cls-13{stroke-width:1.64px;}.cls-11{fill:#1d1d1b;}.cls-12{stroke-width:0.7px;}.cls-13{stroke-linejoin:round;}.cls-14{fill:#7a5cbd;}.cls-15{fill:#6f4eb7;}.cls-16{clip-path:url(#clip-path);}.cls-17{opacity:0.49;}.cls-18{stroke-width:1.5px;}.cls-19{fill:#9ebc5c;}.cls-20{fill:#8bab46;}.cls-21{stroke-width:1.53px;}.cls-22{fill:#8d73c6;}.cls-23,.cls-24{stroke:#000;}.cls-23{stroke-width:1.05px;}.cls-25{fill:#d4d1e4;}.cls-26{fill:#ccc7dd;}.cls-27{fill:#ed038f;}.cls-28{fill:#47e700;}.cls-29{fill:#e3dcf1;}.cls-30{stroke:#ccc7dd;stroke-width:2px;}.cls-31{stroke-width:1.58px;}.cls-32{stroke-width:1.57px;}.cls-33{fill:#e8ab00;}.cls-34{stroke-width:1.67px;}.cls-35{fill:#f9f9f9;}.cls-36{fill:#f2f2f2;}.cls-37{stroke-width:1.5px;}.cls-38{stroke-width:1.49px;}.cls-39{stroke-width:1.61px;}.cls-40{stroke:#f9f9f9;stroke-width:4px;}.cls-41{stroke:#d0c5e7;stroke-width:5px;}.cls-42{fill:#fff6d9;mix-blend-mode:multiply;}</style><clipPath id="clip-path"><polygon class="cls-1" points="1306.59 1317.67 1162.88 1317.67 1155.94 1191.36 1110.01 1317.67 1101.15 1317.41 944.98 1312.84 1029.64 1043.88 1265.39 1041.73 1306.59 1317.67"/></clipPath></defs><g class="cls-2"><g id="Слой_2" data-name="Слой 2"><rect class="cls-3" width="2560" height="1440"/><path id="bg" class="cls-4" d="M483.62,1226.9c-228.27-23.12-315.83-302.36-138.19-443.25q3.52-2.79,7.19-5.57C587,600.52,628.42,576.39,713.76,459.79S1642.67,29.13,2006.16,267s352.25,690,16.73,905.49C1763.32,1339.19,868,1265.83,483.62,1226.9Z"/><g id="blackboard"><rect class="cls-5" x="864.67" y="580.55" width="842.85" height="484.1"/><rect class="cls-6" x="876.51" y="590.82" width="820.54" height="461.04"/><path class="cls-7" d="M1403.37,667.88h-63.31a10.58,10.58,0,0,0-10.55,10.55v63.31a10.58,10.58,0,0,0,10.55,10.55h63.31a10.58,10.58,0,0,0,10.55-10.55V678.43A10.58,10.58,0,0,0,1403.37,667.88Zm0,73.86h-63.31V678.43h63.31Zm-34.24-30.81c2.16-3.85,6.23-6.12,8.6-9.5,2.53-3.58,1.11-10.23-6-10.23-4.65,0-7,3.53-7.92,6.49l-7.22-3a15.71,15.71,0,0,1,15.08-11c6.49,0,11,2.95,13.24,6.65,2,3.16,3.06,9.12.06,13.55-3.33,4.91-6.49,6.39-8.23,9.55-.69,1.27-1,2.11-1,6.23h-8C1367.81,717.52,1367.44,714,1369.13,710.93Zm-3,20a5.46,5.46,0,0,1,5.54-5.48,5.51,5.51,0,0,1,0,11A5.54,5.54,0,0,1,1366.18,730.92Z"/><path class="cls-7" d="M1537,710.26h20.08v65.58H1537Zm36.51-28.1h19.7v93.68h-19.7Zm36.25,53.53h20.92v40.15h-20.92Z"/><path class="cls-7" d="M1638.2,888.81h-62.29a10.42,10.42,0,0,0-10.39,10.38v62.3a10.42,10.42,0,0,0,10.39,10.38h62.29a10.42,10.42,0,0,0,10.39-10.38v-62.3A10.42,10.42,0,0,0,1638.2,888.81Zm0,72.68h-62.29v-62.3h62.29Zm-51.91-36.34h41.53v10.38h-41.53Zm0,15.57h20.77v10.39h-20.77Zm0-31.15h41.53V920h-41.53Z"/></g><g id="arrows"><path class="cls-8" d="M1762,589.82s33.34,104.95,13,153c-8.18,19.26-34.83,4.48-27.82-15.44,1.84-5.23,5.89-10.85,13.25-16.67,22.41-17.72,40.51,13.71,48.06,31.13,30.88,71.26-18.8,140.32-53.51,199.61"/><path class="cls-8" d="M1436.3,561.49s-43.14-98-75.54-94.51-13.88,50.71,7.8,41.25,33-62.78-41-94.06-173.76-10.78-173.76-10.78"/><path class="cls-8" d="M1625.48,1339.45s117.57,63.8,172.94-10.77c16.14-21.74-4.84-52-30.7-44l-1.34.43c-14.16,4.82-22.86,19.48-19.14,34,3.77,14.67,19.79,28.22,72.16,16.59,95.77-21.27,151.9-131.62,151.9-131.62s17.49-29.49,24.56-75.86"/><path class="cls-8" d="M627.58,1119.43s-102.84,92.64-16.19,142.32c67,38.41,107.76,5.73,122.8-11.06a28.77,28.77,0,0,0,6.6-26.72c-2.69-9.78-11.16-19.53-34.71-17.91-45.48,3.14-82.58,57.7-22.85,107.32,55.84,46.39,113.68,36.24,180.55,33.11,51.41-2.4,124.45-9.2,169.82,20.66"/></g><g id="teacher"><path class="cls-9" d="M874.22,1143.27s-42.52,32-57.56,46.61-12.46,17.61-8.37,19.76,14.42-.85,14.42-.85c-2.19,1.67-13,10.61-12.71,21.68.43,14.82,22.33-.14,22.33-.14l.13-.25.06.14h0l-.19.11a28,28,0,0,0-3.54,10.24c-2.89,18,17.51,2.57,17.51,2.57a24.66,24.66,0,0,0-1.08,12.22c3.66,18.26,34.8-14.58,34.8-14.58s20.62-19.54,26.63-21c0,0-2.79,26.21,4.3,36.73s18.47-11,21-22.56,15.69-58.43,15.69-58.43Z"/><path class="cls-10" d="M847.59,1186a237.61,237.61,0,0,0-24.88,22.78"/><path class="cls-10" d="M858.11,1197s-17.79,17.21-25.78,33.36"/><path class="cls-10" d="M873.15,1207.28s-19.75,19-25.56,36"/><path class="cls-3" d="M1029.64,1043.88,967,1186.4l-106.09-49.3,78.23-199.31s34.49-105.53,74.68-126.43,93.29-3.23,93.29-3.23,46.69,4,73-.48c0,0,62.73-26.72,89.52-6.36,47.86,31.26,78.3,134.89,78.3,134.89l50.63-49.83,90.28,68.58s-55.72,91.63-105.55,109.84-81.53-3.22-103.47-21.32c-18.88-15.58-16.5-22.42-16.5-22.42"/><polygon class="cls-3" points="1274.08 971.01 1284.09 1041.56 1029.64 1043.88 1029.64 1015.48 1069.17 930.34 1274.08 971.01"/><path class="cls-9" d="M1507.13,868.18C1505,852.53,1488.9,857,1488.9,857c-2-16.3-19.81-10.94-19.81-10.94l5-15.38s10.89-29.08-4.56-26.31S1435.61,857,1435.61,857h0a80,80,0,0,0-9.11,3.82c-13.27,6.54-19.81,34.27-19.81,34.27l66.75,50.71s24-27.75,28.71-37.94h0s16.75-18,17-28C1519.6,866.4,1507.13,868.18,1507.13,868.18Z"/><polygon class="cls-11" points="1030.27 1029.5 1065 943.43 1039.81 1043.88 1029.64 1043.88 1030.27 1029.5"/><path class="cls-10" d="M1448.1,904.43c11.09-16-3.57-25.55-3.57-25.55l13.08-3.57c20.79-5.56,18.81-13.67,18-15.85s-9.7-6.73-17.83-6.33-18,1.19-31.29,7.72"/><path class="cls-10" d="M1488.51,901.46c1.78-11.1,15.84-31.5,15.84-31.5"/><path class="cls-10" d="M1502.17,907.89c-1.15,1-2.25,1.85-3.26,2.56a6.7,6.7,0,0,1-10.47-4.22,14.25,14.25,0,0,1,.07-4.77"/><path class="cls-10" d="M1487.52,858.87s-19.21,28.83-18.65,44.82a8,8,0,0,0,3.58,6.53c2.89,1.83,7.82,2.24,15.07-5.79"/><path class="cls-10" d="M1456.69,875.56s-8.19,22.13-1.26,28.87,13.44-4.56,13.44-4.56"/><path class="cls-9" d="M1144.56,767.68s22.78,23.3,46.62,10.44,23.57-44.74,23.57-44.74,1.88-16.87,0-29.2"/><path class="cls-12" d="M1119.74,708.74c-12-2.42-28.22,1.16-27.77,16.28.3,9.88,5.6,16.62,15.24,19.36,3.71,1,11.09,1.48,15,1.6"/><line class="cls-12" x1="1099.02" y1="728.29" x2="1110.81" y2="716.24"/><path class="cls-11" d="M1104.82,663.46s-23.48-6.69-17-31.07c3.24-12.28,14.43-18.79,26.28-20.78,7.1-1.19,15.33-1.89,21.62,2.32,5.92,4,11.25,9.52,12.38,16.85,1.6,10.45-1.74,15-1.74,15Z"/><polyline class="cls-11" points="1265.39 1041.73 1259.84 987.11 1250.7 1043.88 1265.39 1041.73"/><polyline class="cls-13" points="1323.79 971.01 1347.9 936.18 1343.61 971.01"/><line class="cls-10" x1="1377.32" y1="907.22" x2="1472.32" y2="979.65"/><circle class="cls-11" cx="1468.17" cy="956.75" r="7.9"/><circle class="cls-11" cx="878.51" cy="1131.88" r="7.9"/><polygon class="cls-14" points="1306.59 1317.67 1162.88 1317.67 1155.94 1191.36 1110.01 1317.67 1101.15 1317.41 944.98 1312.84 1029.64 1043.88 1265.39 1041.73 1306.59 1317.67"/><line class="cls-10" x1="977.71" y1="1159.74" x2="870.6" y2="1112.29"/><path class="cls-15" d="M1262.81,1291.08c-11.66.44-49.5,11.13-83.61,22.92h-15.55l-6.94-124.6L1110.78,1314l-8.86-.26c4.71-20.62,28.93-66.43,36.61-119.62,17.3-119.74-112.12-138.85-112.12-138.85l4-11.35,235.75-3.12S1289.17,1290.06,1262.81,1291.08Z"/><g class="cls-16"><path class="cls-6" d="M997.92,1078a866.39,866.39,0,0,1,73.69-49.29q19.08-11.38,38.73-21.8a140.61,140.61,0,0,1,19.6-9c6.23-2.16,13-3.79,19.64-3.1,6.2.64,11.78,3.81,13.15,10.27,1.33,6.2-.74,13.16-3.09,18.87-4.94,12-13.94,21.92-23.22,30.78-20.35,19.46-42.62,37.16-65.47,53.58a691.19,691.19,0,0,1-72.24,45.42q-4.55,2.49-9.14,4.9l1.84,1.41c1.83-9.87,7.85-18.06,14.8-25,7.74-7.77,16.54-14.59,25.28-21.19,18.2-13.73,37.48-26,57-37.67,19.79-11.81,40-22.91,61.18-32.11,10.59-4.62,21.42-9,32.65-11.8a89,89,0,0,1,17.16-2.72c5-.25,10.93-.5,15.68,1.41,5.63,2.27,5.13,8,3.4,12.82a93.69,93.69,0,0,1-6.47,13.89,157.29,157.29,0,0,1-17.66,25.12c-13.59,16.1-29.1,30.49-43.74,45.61-15.16,15.66-30,31.64-44.78,47.66s-29.65,32.25-44.69,48.18-30.13,31.43-45.81,46.53-32,29.84-49,43.65q-6.24,5.07-12.59,10l2.08.55c-3.19-9,0-18.29,4.47-26.27s10-15.18,15.4-22.38a458.68,458.68,0,0,1,34.57-40.66,465.8,465.8,0,0,1,82.26-68.32c15.61-10.18,32.12-19.35,49.87-25.23a120.19,120.19,0,0,1,26.88-5.81,97.22,97.22,0,0,1,13.76-.3c4.41.21,9.43.35,13.48,2.3,8,3.85,6.59,14.34,4.95,21.45-2.1,9.06-6.06,17.55-10.75,25.54-9.69,16.54-21.78,31.83-34,46.53-12.49,15-25.68,29.39-39,43.6-13,13.82-25.84,28.06-40.75,39.86q-5.41,4.29-11.24,8l1.71,1.71c7.51-16.29,22.43-27.36,36.73-37.37a520.55,520.55,0,0,1,47.2-29.39,532.81,532.81,0,0,1,163.7-57.83c1.58-.29.91-2.69-.67-2.41a535.13,535.13,0,0,0-108.59,31.48,528.2,528.2,0,0,0-98.79,53.15c-16,11-33.37,23-41.73,41.11-.49,1,.56,2.45,1.71,1.71,16.35-10.51,30-24.49,43.26-38.51,14-14.73,27.86-29.53,41.1-44.91,13-15.11,25.56-30.78,36.55-47.44a125.75,125.75,0,0,0,13.12-24.7,70.49,70.49,0,0,0,3.75-13.77,27.63,27.63,0,0,0-.14-11.49,13,13,0,0,0-6.29-8.26c-3.84-2.07-8.46-2.41-12.74-2.74a104.4,104.4,0,0,0-27.72,1.79c-18.83,3.67-36.57,11.79-53.06,21.4a411.44,411.44,0,0,0-45.82,31.44,466.75,466.75,0,0,0-41.87,36.87,460.72,460.72,0,0,0-36.64,41q-8.5,10.74-16.37,22c-5.27,7.55-10.45,15.89-11.78,25.17a25.73,25.73,0,0,0,1.13,12.34,1.27,1.27,0,0,0,2.09.55c17.76-13.72,34.75-28.41,51.15-43.73s32.17-31.19,47.65-47.38,30.71-32.71,45.91-49.21,30.42-33,45.94-49.22c15-15.68,30.94-30.6,45.4-46.82a187.38,187.38,0,0,0,19-24.74,120.42,120.42,0,0,0,7.51-13.81c1.93-4.22,4.24-8.89,4.2-13.64-.08-11.29-14.91-11-22.86-10.57-11.66.61-23,3.85-33.9,7.89-22,8.16-43.1,18.84-63.5,30.42s-40.71,24.07-60,37.67c-9.46,6.67-18.7,13.67-27.57,21.12-7.71,6.46-15.36,13.45-20.54,22.19a40.27,40.27,0,0,0-5,13.08,1.26,1.26,0,0,0,1.83,1.41,695.44,695.44,0,0,0,75.33-46,668.8,668.8,0,0,0,68.13-54.62c9.68-8.89,19.22-18.56,25.35-30.33,5-9.55,10.7-26.26-.06-34.08-4.57-3.33-10.75-3.94-16.22-3.43a68.28,68.28,0,0,0-20.47,5.69c-6.88,3-13.47,6.56-20.05,10.12q-10.23,5.52-20.3,11.32a864.86,864.86,0,0,0-76.7,49.67q-4.62,3.35-9.19,6.76c-1.27,1,0,3.12,1.27,2.16Z"/></g><path class="cls-9" d="M1214.75,704.18l-51.88-35-24.08,40.94c-15.85-11.38-34.18-6.34-42,3-4.65,5.52-6.76,15.14-2.55,23,4.64,8.63,15.87,13.11,27.07,9.94a111.58,111.58,0,0,1,0,23.74c-.89,9.94-3.15,21.29-8.35,30.46a18.24,18.24,0,0,0,.09,18.32c10.91,18.43,34.67,56.22,53.67,69.71,0,0,15.84-45.9,18.53-70.47a18.47,18.47,0,0,0-3.2-12.48c-2.9-4.21-6.72-11.74-8-23.27l-.11-.07a31.38,31.38,0,0,0,17.26-3.8c23.84-12.86,23.57-44.74,23.57-44.74S1216.63,716.51,1214.75,704.18Z"/><path class="cls-11" d="M1123.3,707.53c38.38,13.63,47.79-30.14,47.79-30.14,1.07.81,7.77,23.85,46.88,26.79a116.88,116.88,0,0,0-15.54-40.72c-12.59-20.09-46.35-19-46.35-19-41.79,3.22-66.35,32.62-66.35,32.62s-15.35,17.75-8.92,51.23,40.53,40.83,40.53,40.83a52.38,52.38,0,0,0,1.19-9.33,53.47,53.47,0,0,0-1.27-13.81c-10.24,2.57-20.06-.21-25.28-6.68a18.72,18.72,0,0,1-3.87-11.29c-.87-18.82,16.19-21.56,16.19-21.56S1116.09,705,1123.3,707.53Z"/><path d="M1173.92,781.92s-13.71,1.36-29.36-16c0,0,3.6,23.27,35.08,35.38Z"/><line class="cls-10" x1="1105.94" y1="723.47" x2="1119.92" y2="737.14"/><line class="cls-10" x1="1109.77" y1="717.15" x2="1101.34" y2="729"/><line class="cls-10" x1="1155.94" y1="1191.36" x2="1181.6" y2="1127.28"/><path class="cls-10" d="M1110.81,806.1,1070,801.46c5,9,10.55,18.36,16.81,28,6.07,9.4,12.16,18.1,18.13,26.13l23.91,5.44-14,10.22s32.34,27.23,54.47,42.21c0,0,22.13-26.74,27.92-53.45l-9.26-6.81,12.32-11.91s10.76-22.82,8.42-43.06l-26.71,7"/><line class="cls-10" x1="1169.34" y1="913.49" x2="1169.34" y2="1041.73"/><circle class="cls-17" cx="1208.23" cy="724.31" r="17.53"/><circle class="cls-17" cx="1159.12" cy="726.09" r="17.53"/><circle class="cls-18" cx="1208.23" cy="724.31" r="17.53"/><circle class="cls-18" cx="1159.12" cy="727.01" r="17.53"/><path class="cls-18" d="M1176.84,726.09s7.22-4.86,13.86,0"/><path class="cls-3" d="M1211,710.09c.34.51,8.57,1.58,11.4,10.12"/><path class="cls-3" d="M1162.53,712.81s9.11,3,10,10.13"/></g><g id="left_top_boy" data-name="left top boy"><path class="cls-6" d="M424.48,116.72l43.4,402.39a18.89,18.89,0,0,0,19.2,18.83l505.66-8.73L945.91,113.62a18.87,18.87,0,0,0-19-18.67L443.24,97.81A18.86,18.86,0,0,0,424.48,116.72Z"/><path class="cls-19" d="M570.71,457l-38.9,14.06-8.21,3s-1.92-1.24-5.31-3.51c-8-5.4-24.41-16.63-43.22-30.95q-2.31-1.76-4.67-3.58C446,417.1,418.33,393.55,399.76,371c-40.43-49-79.57-106.85-79.57-106.85l2.1.29h0a578.09,578.09,0,0,1,59.79,12.05h0a399,399,0,0,1,43.45,13.71c13.6,5.26,26.49,11.42,37.19,18.55q2.63,1.76,5.28,3.81a142.8,142.8,0,0,1,13.28,11.83C525.25,368.31,570.71,457,570.71,457Z"/><path class="cls-20" d="M518.45,474.32s-17.1-11.93-40.69-29.84c-3.7-2.8-7.55-5.76-11.53-8.84,1.41.1,2.8.22,4.17.35C446,417.1,418.33,393.55,399.76,371c-40.43-49-79.57-106.85-79.57-106.85l2.1.29h0a578.09,578.09,0,0,1,59.79,12.05h0s-17,1-7.08,22.65C383.66,317.9,434,388,489.54,405a79.62,79.62,0,0,0,26.18,3.68l1,24.84.52,12.56,1,24.48Z"/><path class="cls-19" d="M553.68,534.64c-44.93-3.48-92-13.41-127.77-27.54-8.88-3.5-17.3-7.09-25.2-10.65a543.94,543.94,0,0,1-65.27-34.66c-1.87-1.19-2.85-1.84-2.85-1.84q8.12-3.39,16-6.23a317.06,317.06,0,0,1,57-15.1,256.34,256.34,0,0,1,60.69-3c1.41.1,2.8.22,4.17.35l2.86.28c20.64,2.17,35.64,6.68,44,9.77a78.05,78.05,0,0,1,7.71,3.22l.55,1.74,6.28,20.06,53.7,58.45S554.64,534.71,553.68,534.64Z"/><path class="cls-20" d="M576.43,532.61c-54.24,8.48-114.71-11.38-150.52-25.51-8.88-3.5-17.3-7.09-25.2-10.65a543.94,543.94,0,0,1-65.27-34.66c-1.87-1.19-2.85-1.84-2.85-1.84q8.12-3.39,16-6.23l3.1.28s2.59,8,37.1,20.32,102.47,33,125.28-26.87L525.53,451l2.45.76S577.51,532.47,576.43,532.61Z"/><path class="cls-21" d="M322.29,264.48h0C338,272,356.09,284.35,375,299.2c16.16,12.67,32.89,27.17,49.14,42,14.08,12.9,27.8,26.07,40.45,38.58q6,5.9,11.59,11.56c4.65,4.69,9.11,9.24,13.33,13.58,10.85,11.14,20.15,21,27.21,28.52,9.29,9.94,14.72,16,14.72,16"/><line class="cls-21" x1="425.56" y1="290.26" x2="424.17" y2="341.24"/><line class="cls-21" x1="468.03" y1="312.62" x2="464.62" y2="379.82"/><line class="cls-21" x1="481.31" y1="324.45" x2="476.21" y2="391.38"/><path class="cls-21" d="M524,497.17s-37.5-10.93-80.78-20.69c-39.31-8.87-83.38-16.77-108.41-14.64"/><line class="cls-21" x1="400.53" y1="496.53" x2="445.51" y2="477.01"/><line class="cls-21" x1="425.91" y1="507.1" x2="470.4" y2="482.92"/><line class="cls-21" x1="405.54" y1="438.62" x2="425.51" y2="472.64"/><line class="cls-21" x1="473.26" y1="436.27" x2="503.51" y2="491.48"/><path class="cls-22" d="M521.38,493.22c13,28.55,44.55,43.91,113.82,45.17,36.38.66,78.34,1.28,106.34,1.67,19,.27,31.62.43,31.62.43l22.58-.31,127.57-1.75c-.56-41.79-10.73-107.95-10.73-107.95s-20.32-84.42-67.62-115c-23.18-15-51.61-15.23-74.58-11.61-23.9,3.77-50.4,11.67-50.4,11.67l-49.6-.45s-34.7-14.56-64.21-17.07-74,15.92-87.47,59.84C510.18,385.79,508.43,464.67,521.38,493.22Z"/><path class="cls-15" d="M761.83,539.68l35.22.74,127.57-1.75c-.56-41.79-10.73-107.95-10.73-107.95s-20.32-84.42-67.62-115c-23.18-15-51.61-15.23-74.58-11.61h0s111.93,79.47,67,134.76C823,458.22,761.83,456,761.83,456Z"/><path class="cls-5" d="M877,520.15S786,514,767.77,525.52a15.2,15.2,0,0,0-7.25,15l108.05-.09Z"/><path class="cls-9" d="M760.45,463.8c5.2-5.49,17.87-9.2,24.2-10.78a25.38,25.38,0,0,1,7.41-.74c7,.32,21.53,1.56,22.27,6.24,1,6.18-4,7.32-4,7.32s19.63-4.66,24.18-3.5c6.41,1.64.33,11.82.33,11.82s3.61-3.64,6.74,2-4.44,15.08-4.44,15.08c3.12,1.1,3.61,5.28,3.61,5.28,1.32,8.54-10.18,17.27-10.18,17.27,3.12,4.36-1.32,10-1.32,10-17.57,15.64-68.48,9.64-68.48,9.64Z"/><path class="cls-10" d="M805.09,526s19.7-5.51,26-12.17"/><path class="cls-10" d="M798.79,512.33s24.89-4.54,38.59-21.09"/><path class="cls-10" d="M796.43,493.4s19.53,1.66,38.75-19.24"/><path class="cls-10" d="M810.36,465.84a64.57,64.57,0,0,1-26.28,6"/><polyline class="cls-23" points="632.08 409.13 626.88 441 760.52 454.92 760.52 540.49"/><path class="cls-9" d="M748.16,449.06c-.37-3.48-2.91-4.85-5.39-6.57-4.77-3.3-10.06-5.7-15.12-8.52-13.13-7.31-28.44-14.24-43.79-13.66-.73,0-1.46.07-2.18.14-27.95,2.59-40.38,38.79-36.92,44.84s13.06-1,13.06-1l.87-.23c-2.05,3.79-2.94,7.27-1.5,9.68,4.64,7.78,21.85-5.86,25.31-10.76,0,0-4.07,8.72-3.77,14.81a6.18,6.18,0,0,0,8,5.55,33.74,33.74,0,0,0,9.31-5s.14,5,1.75,7.49c4.74,7.29,11.21-.82,15.66-8.32a40.59,40.59,0,0,1,17.72-16.15c3.58-1.67,7.85-3.5,12.73-5.3C746.65,455.08,748.56,452.92,748.16,449.06Z"/><path class="cls-10" d="M675.65,439.09A79.26,79.26,0,0,0,658,465.41"/><path class="cls-10" d="M692.92,444.94c-.38-.45-8.26,8.83-11.38,20.3"/><path class="cls-10" d="M709.13,450.78s-12.36,15.22-13,27.42"/><polygon class="cls-11" points="643.6 442.74 634.74 384.42 625.88 441 643.6 442.74"/><polyline class="cls-23" points="813.61 401.1 825.22 440.37 747.06 441.7 748.21 452.25"/><polygon class="cls-24" points="824.41 440.44 837.61 439.56 810.32 391.44 824.41 440.44"/><path class="cls-11" d="M658.43,295.83s-11.88-.78-17.77-22.27l23.49-4.36Z"/><path class="cls-25" d="M1119,400.81l-41.39,137.57-211.11,1.74,41-139.46a15.56,15.56,0,0,1,15.06-11.17l189.29,1.6A7.55,7.55,0,0,1,1119,400.81Z"/><circle class="cls-3" cx="1002.35" cy="459.67" r="14.56"/><path class="cls-26" d="M946.25,389.39s-1.53,78.73,52.6,102.21,87.87,16.93,87.87,16.93l-9.09,29.85-211.11,1.74,40.73-138.59a16.9,16.9,0,0,1,16.22-12.14Z"/><path class="cls-9" d="M652.41,279.33v-46l30-29.28,51.53,9.1s8.85,38.22,1.2,61.51c-5.72,17.42-16.65,21.06-29.24,19.46l17.46,28a14,14,0,0,1-4,19c-11.37,7.65-31.59,14.72-57.3-3.56a14.08,14.08,0,0,1-5.92-12.93c1-9.69,1.69-27.48-3.73-45.25"/><path class="cls-11" d="M642,267.2s-16.52-12-15.1-32.38,23.5-24,23.52-24c-.48.08,1-11.56,1-12,3.14-16.34,14.36-25.29,29.65-30.38,14.88-4.94,32.39-4.46,44.34,6.81,16.94,16,13.13,29.76,9.32,36.61a17.86,17.86,0,0,1-6.92,6.82c-26,14.55-49.72-2.24-49.72-2.24s4.63,28.26-26.68,27.58"/><path class="cls-9" d="M654.19,243.27s-14.29-5.54-20.54,5.36.72,34.26,25.9,30.7"/><line class="cls-10" x1="652.41" y1="267.2" x2="640.97" y2="258.09"/><line class="cls-10" x1="644.55" y1="249.88" x2="638.12" y2="263.63"/><path class="cls-11" d="M711,295l6,16.17A79.76,79.76,0,0,1,681,284S696.54,294.53,711,295Z"/></g><g id="laptop"><polygon class="cls-26" points="1544.43 1343.75 1087.64 1340.35 1087.64 1329.16 1545.55 1332.17 1544.43 1343.75"/><polyline class="cls-26" points="1627.38 1271.6 1544.73 1330.81 1544.47 1344.85 1626.93 1286.55"/><polygon class="cls-26" points="1189.05 1272.7 1213.32 1030.88 1647.1 1030.88 1628.48 1272.7 1189.05 1272.7"/><polygon class="cls-3" points="1201.61 1258.87 1221.41 1041.86 1635.28 1041.86 1619.44 1259.03 1201.61 1258.87"/><path class="cls-14" d="M1399.19,1095.79l-.73,22.64c0,14.56-16.49,23.26-17.56,23.84l32.67-16.66a29.27,29.27,0,0,0,7.45-5.32c6.74-6.75,7.17-13.78,7.17-13.78l2.86-41.8-21.31,10.86C1399.12,1081,1399.19,1095.79,1399.19,1095.79Z"/><path class="cls-27" d="M1354.44,1170.64l22.57-2c14.45-1.79,25.11,13.56,25.79,14.56l-20.48-30.43a29.29,29.29,0,0,0-6.18-6.73c-7.52-5.91-14.55-5.45-14.55-5.45l-41.84,2.21,13.35,19.79C1339.74,1172.5,1354.44,1170.64,1354.44,1170.64Z"/><path class="cls-28" d="M1471.65,1141.15l-22.66-.1c-14.55.45-23.75-15.81-24.33-16.87l17.57,32.18a29.46,29.46,0,0,0,5.54,7.3c6.94,6.58,14,6.77,14,6.77l41.87,1.69-11.47-21C1486.45,1140.65,1471.65,1141.15,1471.65,1141.15Z"/><path class="cls-7" d="M1428.78,1214l-.36-22.66c-.75-14.54,15.33-24.07,16.39-24.67L1413,1184.88a29.55,29.55,0,0,0-7.19,5.69c-6.43,7.07-6.48,14.12-6.48,14.12l-.81,41.88,20.75-11.89C1429.59,1228.75,1428.78,1214,1428.78,1214Z"/><circle class="cls-27" cx="1378.18" cy="1192.3" r="14.56"/><circle class="cls-14" cx="1374.06" cy="1115.34" r="14.56"/><circle class="cls-28" cx="1453.4" cy="1117.22" r="14.56"/><circle class="cls-7" cx="1452.3" cy="1194.97" r="14.56"/><polygon class="cls-29" points="1087.64 1329.16 1544.45 1332.17 1626.28 1272.7 1191.28 1272.7 1087.64 1329.16"/><line class="cls-30" x1="1088.64" y1="1330.64" x2="1189.05" y2="1272.7"/><line class="cls-30" x1="1190.05" y1="1280.4" x2="1596.93" y2="1280.4"/><line class="cls-30" x1="1176.02" y1="1289.11" x2="1583.87" y2="1291.11"/><line class="cls-30" x1="1159.26" y1="1297.67" x2="1571.19" y2="1300.83"/><polygon class="cls-26" points="1249.51 1324.7 1275.47 1304.83 1380.06 1306.23 1356.96 1326.26 1249.51 1324.7"/></g><g id="left_bottom_girl" data-name="left bottom girl"><path class="cls-6" d="M233.59,674.35l-48.23,403.49a18.86,18.86,0,0,0,19.19,18.82l505.66-8.72L755,671.25a18.86,18.86,0,0,0-19-18.67l-483.7,2.86A18.87,18.87,0,0,0,233.59,674.35Z"/><path class="cls-19" d="M337.17,1035.53l-20.47,2.87S205.54,958.27,150.38,892.65c-54.29-64.59-62.82-80.47-63.07-81,.17,0,2.25.22,5.88.74,16.6,2.41,65.58,11.59,112.19,40.37a220.42,220.42,0,0,1,48.11,39.64c64.14,71.1,70.5,102,70.5,102Z"/><path class="cls-20" d="M337.17,1035.53l-20.47,2.87S205.54,958.27,150.38,892.65c-54.29-64.59-62.82-80.47-63.07-81,.17,0,2.25.22,5.88.74,0,0,93.32,118.13,129.71,117.14,28.63-.78-2.83-54.1-17.52-76.77a220.42,220.42,0,0,1,48.11,39.64c64.14,71.1,70.5,102,70.5,102Z"/><path class="cls-31" d="M93.92,817s151.5,111.39,218.52,195.42"/><line class="cls-31" x1="156.39" y1="828.98" x2="156.43" y2="865.5"/><line class="cls-31" x1="170.75" y1="834.79" x2="169.55" y2="876.17"/><line class="cls-31" x1="248.46" y1="887.09" x2="245.06" y2="941.77"/><path class="cls-19" d="M338,1065.47l-42.46,28.37s-96.1-34.11-148.37-73.55c-34.68-26.17-69.75-56.36-89.44-73.72h0l0,0c-10-8.79-16-14.28-16-14.28s75.55-8.09,131.9,4.59a160,160,0,0,1,20.52,5.95C250.41,963.65,338,1065.47,338,1065.47Z"/><path class="cls-20" d="M338,1065.47l-42.46,28.37s-96.1-34.11-148.37-73.55c-34.68-26.17-69.75-56.36-89.44-73.72,2,1.42,142.75,100.55,162.84,77,20.24-23.74-47-86.69-47-86.69a160,160,0,0,1,20.52,5.95C250.41,963.65,338,1065.47,338,1065.47Z"/><path class="cls-32" d="M297.24,1067.32s-169.51-117-253.35-135.27"/><line class="cls-32" x1="152.67" y1="933.13" x2="163.97" y2="984.57"/><line class="cls-32" x1="200.33" y1="945.36" x2="213.66" y2="1013.54"/><line class="cls-32" x1="216.44" y1="954.03" x2="228.02" y2="1022.36"/><path class="cls-7" d="M637,992.7v97.57L597.29,1092l-1,0-78.36,3.38-6.88.3-12.27.53-23.77,1-10.12.43S331.24,1110.25,290.3,1091s-37.78-57.73-37.78-57.73,4.24-82.83,27.33-109.77c0,0,19.37-35.55,62.93-47.31a218.6,218.6,0,0,1,26.74-5.64,163.3,163.3,0,0,1,18.57-1.71c7.49-.23,14.93-.78,21.48.78,26.24,6.3,62.65,4.47,62.66,4.47,4.88-.5,9.77-1.89,14.68-2.51,5.6-.71,11.37-1.4,17.16-1.78a94.66,94.66,0,0,1,23.37,1c14.79,2.75,26.78,11.42,38.2,20.77,21.14,17.3,50.14,64.47,63.75,87.75C634.13,987.49,637,992.7,637,992.7Z"/><path class="cls-33" d="M637,992.71v97.56l-119.09,5.13-53,2.3L467,1021l-22.24-3.3s50,2,67.51-45.93c16.09-44-4.76-94.22-8.18-101.93a94.66,94.66,0,0,1,23.37,1c14.79,2.75,26.78,11.42,38.2,20.77C594.17,914.94,637,992.71,637,992.71Z"/><polygon class="cls-11" points="563.27 1083.62 533.56 990.62 586.35 1082.9 563.27 1083.62"/><path class="cls-25" d="M849.93,959.48l-42.18,140.18-215.12,1.78,41.76-142.12a15.85,15.85,0,0,1,15.34-11.38l192.89,1.63A7.7,7.7,0,0,1,849.93,959.48Z"/><circle class="cls-3" cx="731.04" cy="1019.45" r="14.83"/><path class="cls-26" d="M673.88,947.84s-1.56,80.22,53.59,104.16S817,1069.24,817,1069.24l-9.27,30.42-215.12,1.78,41.5-141.23a17.22,17.22,0,0,1,16.53-12.37Z"/><path class="cls-5" d="M600.14,1081.35s-91.26-3.69-111.26,5.48S469.24,1100,469.24,1100l123.39,1.4Z"/><polygon class="cls-11" points="369.72 951.42 384.74 1011.51 358.88 1010.16 369.72 951.42"/><path class="cls-9" d="M509.55,1080.36s-12.58,9.79-12.79,13.39c-.1,1.79,1.9,2.65,3.93,3a15.25,15.25,0,0,0,6.31-.14,118.87,118.87,0,0,0,18.48-5.49c6.54,7.76,12.67-.84,12.67-.84,4,3.51,7.25.84,7.25.84,8.92-4.08,3.3-25.34,3.3-25.34s21.47,19.13,28.47,18.46c10.76-1-1.78-15.35-1.78-15.35s-22.23-28-31.63-31.51c-21.27-8-76.83-15.39-76.83-15.39l-1.21,52.39c11,12.94,40.73,7.47,40.73,7.47Z"/><line class="cls-34" x1="539.91" y1="1057.19" x2="547.58" y2="1066.43"/><path class="cls-34" d="M518.21,1065.42a25,25,0,0,1,5.42,24.85"/><path class="cls-34" d="M530.06,1060.63s9.09,9.47,6.54,28.47"/><polyline class="cls-34" points="464.88 1097.69 466.98 1019.96 361.68 1009.14"/><line class="cls-23" x1="419.71" y1="809.1" x2="434.37" y2="820.17"/><line class="cls-23" x1="421.77" y1="799.93" x2="415.29" y2="817.44"/><path d="M478.89,844.29s-12.57.72-28.2-6.4c0,0,6.38,12.89,32.72,26.13Z"/><path class="cls-11" d="M496.12,838s16,1.92,7.4,31.39l-26.95,2.76s-3.28-36.33-1.24-35.42S496.12,838,496.12,838Z"/><path class="cls-9" d="M500,778a63.09,63.09,0,0,0-14.29-24.42c-12.78-.78-21.8.33-31.89,14.33-5.23,7.25-9,26.68-15.79,25.38-14.11-2.69-24.75.89-27.88,14.08-3.8,16,9,28.3,22.59,26.53,0,0-9.47,29-14.4,38.27,0,0,1.09,16,27.59,25.07,16.68,5.74,28.89-3.39,35.65-10.94a16.71,16.71,0,0,0,3.13-17c-2.74-7.34-5.74-14.91-5-20.67a25.8,25.8,0,0,0,12-3.57C513,833.26,506,796.91,500,778Z"/><line class="cls-10" x1="424.4" y1="810.42" x2="437.96" y2="822.03"/><line class="cls-10" x1="426.94" y1="801.65" x2="419.61" y2="818.25"/><path d="M479.73,848.64s-9.49,2.79-27-8.45c0,0,6.48,12.71,31.25,27.12Z"/><ellipse class="cls-11" cx="434.2" cy="719.86" rx="18.36" ry="17.45" transform="translate(-310.78 1109.39) rotate(-86.51)"/><path class="cls-11" d="M433.78,833.88c-4.17,10.71-11.22,27.55-15.4,38.27-8.83-4.84-38.06-2.23-38.06-2.23s-25.79,1.51-50.1,14c-15.06,8.5-29.36,18.75-39.57,32.92-11.59,16.11-20,30-24.12,49.25-2,9.53-5.08,22.1-5.08,22.1l-8.27,35.88c-83.82,2.3-73.13-64.72-45.46-99l.85-1c16.39-19.89,40.58-34.18,62.36-47.33,15.6-9.41,31.76-18.68,48.18-26.93,8.48-4.25,17.09-8.27,25.83-12,8.44-3.57,17.13-6.48,25.05-11.17,8.32-4.93,18.63-11.9,21.21-21.87,4.44-17.2,8.24-28.19,8.24-28.19,8.43-18.53,26-40.76,61.71-36.66s41.3,41.39,41.3,41.39c-23.6-2.23-35-16.84-35-16.84s.2,20.31-27.67,29.34c0,0-16.89-5.4-25.9,5.61a14.19,14.19,0,0,0-2.77,5.64c-1.42,5.72-3.11,17.47,9,25.4,1.78.85,4.55,2.93,7.79,3.36A25.61,25.61,0,0,0,433.78,833.88Z"/><circle class="cls-35" cx="340.26" cy="918.17" r="12.67"/><circle class="cls-35" cx="506.05" cy="899.02" r="12.67"/><circle class="cls-36" cx="605.63" cy="974.12" r="12.67"/><circle class="cls-36" cx="561.91" cy="907.93" r="12.67"/><circle class="cls-36" cx="554.38" cy="966.09" r="12.67"/><circle class="cls-35" cx="283.14" cy="1014.24" r="12.67"/><circle class="cls-35" cx="333.49" cy="993.55" r="12.67"/><circle class="cls-35" cx="364.05" cy="1043.77" r="12.67"/><circle class="cls-35" cx="311.47" cy="1062.14" r="12.67"/><circle class="cls-35" cx="389.43" cy="930.84" r="12.67"/><path class="cls-35" d="M397.09,877.83a12.68,12.68,0,0,1-25.35,0c0-3,1-4.73,2.76-6.9a159.64,159.64,0,0,1,18.22-1.68C395.4,871.58,397.09,874,397.09,877.83Z"/><circle class="cls-35" cx="412.96" cy="990.9" r="12.67"/><circle class="cls-35" cx="443.85" cy="931.78" r="12.67"/><circle class="cls-35" cx="502.45" cy="943.52" r="12.67"/><circle class="cls-35" cx="468.9" cy="986.72" r="12.67"/><circle class="cls-36" cx="515.13" cy="1003.58" r="12.67"/><circle class="cls-36" cx="589.34" cy="1033.37" r="12.67"/><circle class="cls-35" cx="397.09" cy="1074.82" r="12.67"/><circle class="cls-35" cx="434.37" cy="1036.75" r="12.67"/><circle class="cls-35" cx="301" cy="948.7" r="12.67"/></g><g id="right_top_girl" data-name="right top girl"><path class="cls-6" d="M2128.49,135.93l48.22,398.23A18.86,18.86,0,0,1,2157.52,553l-505.66-8.73-44.8-411.43a18.87,18.87,0,0,1,19-18.67L2109.73,117A18.87,18.87,0,0,1,2128.49,135.93Z"/><path class="cls-19" d="M2257.21,245c-.12.38-3.6,10.4-25,47.83-5.87,10.27-13.08,22.6-21.94,37.37-41.8,69.66-133.83,161.26-133.83,161.26l-19.59.38,6.19-40.45s1.33-29.83,50.71-106a202.79,202.79,0,0,1,29.72-35.75s0,0,0,0h0C2193.19,261.79,2256.21,245.21,2257.21,245Z"/><path class="cls-20" d="M2254.37,245.76c-.47,1.25,3.44-1.53,2.84,0-2,5.05-9.14,15.75-12.53,23.2a495.43,495.43,0,0,1-34.38,61.2c-18.66,28.18-65.52,87.92-133.83,161.26l-19.59.38,6.19-40.45s1.33-29.83,50.71-106a202.79,202.79,0,0,1,29.72-35.75c-.95,1.19-54.15,86.5-44.5,118.23C2108.25,458.31,2244.16,257.86,2254.37,245.76Z"/><path class="cls-37" d="M2251.82,251.41S2126.71,378.31,2076.57,467"/><line class="cls-37" x1="2195.16" y1="271.99" x2="2200.59" y2="306.17"/><line class="cls-37" x1="2182.58" y1="279.58" x2="2189.9" y2="318.11"/><line class="cls-37" x1="2117.69" y1="340.14" x2="2129.05" y2="390.8"/><path class="cls-20" d="M2143.52,309.62l0,0s0,0,0,0Z"/><path class="cls-19" d="M2317.9,351.48s-42.49,53.42-85.51,98.15c-26.06,27.1-67.46,54.77-96.06,72.38a67.81,67.81,0,0,1-63.88,3.9l-11.88-5.45s40.81-66.27,82.28-108.52l.33-.33.22-.22.13-.13c11.34-11.48,22.72-21.13,33.31-27.11,41.62-23.47,112.9-30.56,134.6-32.23C2315.57,351.6,2317.9,351.48,2317.9,351.48Z"/><path class="cls-20" d="M2317.9,351.48s-42.49,53.42-85.51,98.15c-25.88,26.92-66.91,54.41-95.49,72a69,69,0,0,1-65.06,4l-11.27-5.17s40.81-66.27,82.28-108.52l.33-.33.22-.22.13-.13s-27.5,69.31,1,77.21c28,7.74,142.22-102.85,166.88-136.55C2315.57,351.6,2317.9,351.48,2317.9,351.48Z"/><path class="cls-38" d="M2099,516.09s141.12-134.88,216.85-164.48"/><line class="cls-38" x1="2214.22" y1="368.89" x2="2211.33" y2="418.72"/><line class="cls-38" x1="2171.44" y1="387.46" x2="2169.17" y2="453.26"/><line class="cls-38" x1="2157.67" y1="397.99" x2="2157.05" y2="463.66"/><path class="cls-7" d="M2128.42,484.65s-5.36-79.66-28.94-107.16c0,0-23.93-40-63.22-53.22,0,0-40.36-11.08-67.15-4.65s-65,2.5-65,2.5c-5-.51-10-1.92-15-2.56-13.45-1.7-27.74-3.32-41.38-.78-15.1,2.81-27.34,11.66-39,21.2-29.13,23.84-72.87,103.23-72.87,103.23L1761,545.46l131.1,4.95h19.51s136.45,12.82,178.24-6.83S2128.42,484.65,2128.42,484.65Z"/><path class="cls-33" d="M1736,445.14l1.25,100.09L1857.59,549l53.6,1.68,1.33-78.92-1.45-7.44S1880,471,1861.73,422.06c-16.81-45,3.6-96.72,7-104.68a94.6,94.6,0,0,0-23.6,1.34c-14.9,3-26.9,12.06-38.3,21.79C1778.27,364.82,1736,445.14,1736,445.14Z"/><polygon class="cls-11" points="1812.11 538.51 1840.15 432.91 1789.45 537.8 1812.11 538.51"/><polygon class="cls-11" points="2005.26 413.98 1992.42 461.42 2019.83 460 2005.26 413.98"/><circle class="cls-3" cx="1632.54" cy="471.7" r="14.56"/><path class="cls-25" d="M1515.19,407.76l41.4,137.56,211.1,1.75-41-139.47a15.56,15.56,0,0,0-15.06-11.17L1522.36,398A7.56,7.56,0,0,0,1515.19,407.76Z"/><circle class="cls-3" cx="1631.86" cy="466.61" r="14.56"/><path class="cls-5" d="M1760.32,527.35s89.55-3.62,109.18,5.38,19.78,17.68,19.78,17.68l-121.59-3.34Z"/><path class="cls-26" d="M1688,396.33s1.53,78.73-52.6,102.22-87.87,16.92-87.87,16.92l9.1,29.85,211.1,1.75L1727,408.47a16.91,16.91,0,0,0-16.22-12.14Z"/><path class="cls-9" d="M1870.18,533.92s13.68,8.8,14.22,12.44c.27,1.82-1.69,2.87-3.71,3.46a15.51,15.51,0,0,1-6.43.44,122.24,122.24,0,0,1-19.3-3.9c-5.94,8.49-13,.3-13,.3-3.78,4-7.29,1.52-7.29,1.52-9.45-3.33-5.67-25.46-5.67-25.46s-20.09,21.41-27.27,21.37c-11-.08.41-15.77.41-15.77s20-30.5,29.29-34.94c20.9-10,78-22.34,78-22.34l1.61,59.65c-10,14.16-37.6,4.51-37.6,4.51Z"/><line class="cls-39" x1="1835.11" y1="513.31" x2="1828.15" y2="523.41"/><path class="cls-39" d="M1857.94,519.7a25.51,25.51,0,0,0-3.25,25.76"/><path class="cls-39" d="M1845.44,515.91s-8.37,10.46-4,29.55"/><path class="cls-11" d="M1911.09,298.34l-34.38-2.49-1.12-17.53s-7.76,8-9.76,16.74L1851.19,294s.49-20.83,13.21-31.19,23.66-16,27.47-29.42l20.65,45.22Z"/><path class="cls-9" d="M1889.44,227.94a61.75,61.75,0,0,1,13.83-24.06c12.53-.86,21.39.16,31.4,13.81,5.18,7.08,9,26.11,15.68,24.79,13.82-2.74,24.3.69,27.47,13.61,3.85,15.71-9.57,27.84-23,26.2,0,0,10.49,28.39,15.39,37.44,0,0-.94,15.67-26.87,24.81S1902,329.19,1902,329.19c2.53-9.41,8.94-24.15,7.89-32.06a25.37,25.37,0,0,1-11.84-3.42C1877.17,282.28,1883.78,246.56,1889.44,227.94Z"/><line class="cls-39" x1="1963.9" y1="259.21" x2="1950.68" y2="270.7"/><line class="cls-39" x1="1961.34" y1="250.62" x2="1968.65" y2="266.86"/><path d="M1909.89,297.13s12-.7,26.42-8.51c0,0-5.88,12.59-30.08,26.91Z"/><path class="cls-11" d="M1954.87,282.29l5.67,16.95,40.78-3.86L2000.16,276s11.7,7.16,11,18.48c0,0,18-2.1,21.92-5.07,0,0-3.2-19.29-19.78-27.87s-17.87-18.76-17.87-18.76-3-34.23-15.28-44.44c0,0-24.75-22.95-52-17.17-21.63,4.6-31,14.86-37,25.22-4.43,7.54,2.37,16.8,10.86,14.7,5.38-1.34,11.78-4.49,18.88-10.93,0,0,3.71,22.24,28.24,33.27a25,25,0,0,1,15.12-.88c9,2.38,14.42,11.63,12.64,20.81C1975.33,271.31,1970.15,280.45,1954.87,282.29Z"/><polyline class="cls-10" points="2019.83 460 1911.07 464.31 1911.6 550.41"/><path class="cls-40" d="M1814.8,398.4s8.73-5.95,18.1,2.82,20.37,2.36,20.37,2.36"/><path class="cls-40" d="M1821.85,350s3.17-10.08,16-9,17.46-10.76,17.46-10.76"/><path class="cls-40" d="M1862.22,363.86s6.18-8.57,18-3.52,20-4.73,20-4.73"/><path class="cls-40" d="M1914.76,398.72s6.27-8.5,18-3.33,20-4.53,20-4.53"/><path class="cls-40" d="M1761.26,490.47s5.89-8.77,17.85-4.12,19.78-5.41,19.78-5.41"/><path class="cls-40" d="M1982.87,338.07s6.26-8.51,18-3.33,20-4.53,20-4.53"/><path class="cls-40" d="M1873.66,421.64s10.18-2.83,16.23,8.5,18.52,8.78,18.52,8.78"/><path class="cls-40" d="M1940.84,495.32s5.3-9.14,17.54-5.29,19.38-6.7,19.38-6.7"/><path class="cls-40" d="M1931.53,537.31s5.92-8.75,17.86-4.06,19.8-5.33,19.8-5.33"/><path class="cls-40" d="M1941.93,443.52s1.9-10.39,14.72-10.89,16-12.83,16-12.83"/><path class="cls-40" d="M2053.52,442.07s-6.5-8.33,1.64-18.24,1-20.48,1-20.48"/><path class="cls-40" d="M2043.61,354.47s10.3-2.35,15.82,9.23,18.11,9.62,18.11,9.62"/><path class="cls-40" d="M2083.64,461.42s1.9-10.4,14.73-10.89,16-12.83,16-12.83"/><path class="cls-40" d="M1986.51,394.79s1.9-10.39,14.73-10.88,16-12.83,16-12.83"/><path class="cls-40" d="M2003.37,542.54s1.91-10.39,14.73-10.88,16-12.83,16-12.83"/><path class="cls-40" d="M2076.57,527.77s1.9-10.4,14.72-10.89,16-12.83,16-12.83"/><path class="cls-40" d="M2022.33,479.91s9-5.62,18,3.5,20.26,3.13,20.26,3.13"/><path class="cls-40" d="M1849.12,480.37s1.9-10.39,14.73-10.88,16-12.83,16-12.83"/><path class="cls-40" d="M1772.35,407.7s10.44,1.6,11.32,14.4,13.3,15.61,13.3,15.61"/></g><g id="right_bottom_boy" data-name="right bottom boy"><path class="cls-6" d="M2440.64,696.84l-53,392.83a18.86,18.86,0,0,1-19.19,18.82l-505.66-8.72,56.47-406a18.87,18.87,0,0,1,19-18.67l483.69,2.86A18.87,18.87,0,0,1,2440.64,696.84Z"/><path class="cls-19" d="M2269.58,1016.25l38.9,14.06,8.21,3s1.92-1.24,5.31-3.51c8.05-5.4,24.41-16.63,43.22-30.95q2.31-1.76,4.67-3.58c24.45-18.89,52.07-42.44,70.64-65,40.43-49,79.57-106.85,79.57-106.85l-2.1.29h0a578.09,578.09,0,0,0-59.79,12h0a399,399,0,0,0-43.45,13.71c-13.6,5.26-26.49,11.42-37.19,18.55q-2.62,1.76-5.28,3.81A142.8,142.8,0,0,0,2359,883.7C2315,927.56,2269.58,1016.25,2269.58,1016.25Z"/><path class="cls-20" d="M2321.84,1033.57s17.1-11.93,40.69-29.84c3.7-2.8,7.55-5.76,11.53-8.84-1.41.1-2.8.22-4.17.35,24.45-18.89,52.07-42.44,70.64-65,40.43-49,79.57-106.85,79.57-106.85l-2.1.29h0a578.09,578.09,0,0,0-59.79,12h0s17,1,7.08,22.65c-8.63,18.7-59,88.76-114.51,105.76a79.62,79.62,0,0,1-26.18,3.68l-1,24.84-.52,12.56-1,24.48Z"/><path class="cls-19" d="M2287.63,1096.85l2.88-.21c44.93-3.48,88.06-16.16,123.87-30.29,8.88-3.5,17.3-7.09,25.2-10.65a543.94,543.94,0,0,0,65.27-34.66c1.87-1.19,2.85-1.84,2.85-1.84q-8.11-3.39-15.95-6.23a317.06,317.06,0,0,0-57-15.1,256.34,256.34,0,0,0-60.69-3c-1.41.1-2.8.22-4.17.35l-2.86.28c-20.64,2.17-35.64,6.68-44,9.77a78.05,78.05,0,0,0-7.71,3.22l-.55,1.74-6.28,20.06-20.68,66Z"/><path class="cls-20" d="M2278.62,1096l2.1.28,2.8.34c46.38-3.48,90.9-16.16,127.86-30.29,9.16-3.5,17.85-7.09,26-10.65a566.86,566.86,0,0,0,67.37-34.66c1.93-1.19,2.94-1.84,2.94-1.84q-8.37-3.39-16.46-6.23l-3.2.28s-2.67,8-38.3,20.32-105.76,33-129.31-26.87l-11.88,3.55-2.53.76Z"/><path class="cls-21" d="M2308.82,1008.71s5.43-6,14.72-16c7.06-7.56,16.36-17.38,27.21-28.52,4.22-4.34,8.68-8.89,13.33-13.58q5.63-5.65,11.59-11.56c12.65-12.51,26.37-25.68,40.45-38.58,16.25-14.87,33-29.37,49.14-42,18.94-14.85,37.08-27.2,52.73-34.71h0"/><line class="cls-21" x1="2414.73" y1="849.51" x2="2416.12" y2="900.5"/><line class="cls-21" x1="2372.26" y1="871.87" x2="2375.67" y2="939.07"/><line class="cls-21" x1="2358.98" y1="883.7" x2="2364.08" y2="950.64"/><path class="cls-21" d="M2316.32,1056.42s37.51-10.93,80.78-20.69c39.31-8.87,83.38-16.77,108.41-14.64"/><line class="cls-21" x1="2439.76" y1="1055.79" x2="2394.78" y2="1036.26"/><line class="cls-21" x1="2414.39" y1="1066.35" x2="2369.89" y2="1042.17"/><line class="cls-21" x1="2434.75" y1="997.87" x2="2414.78" y2="1031.89"/><line class="cls-21" x1="2367.03" y1="995.52" x2="2336.78" y2="1050.73"/><path class="cls-22" d="M2333.06,1056.86c-12.95,28.55-44.55,43.91-113.82,45.17-36.38.66-78.34,1.28-106.34,1.67-19,.27-31.62.43-31.62.43l-22.58-.31-127.57-1.75c.56-41.79,10.73-107.95,10.73-107.95s20.32-84.42,67.62-115c23.18-15,51.61-15.23,74.58-11.61,23.9,3.77,50.4,11.67,50.4,11.67l49.6-.45s34.7-14.56,64.21-17.07,74.05,15.92,87.47,59.84C2344.26,949.43,2346,1028.31,2333.06,1056.86Z"/><path class="cls-15" d="M2093.93,1102.27l-35.23.74-127.57-1.75c.56-41.79,10.73-108,10.73-108s20.32-84.42,67.62-115c23.18-15,51.61-15.23,74.58-11.61h0s-111.93,79.47-67,134.76c15.67,19.3,76.87,17,76.87,17Z"/><line class="cls-41" x1="2065.26" y1="948.06" x2="2086.7" y2="939.07"/><line class="cls-41" x1="2108.65" y1="966.55" x2="2124.43" y2="983.62"/><line class="cls-41" x1="2133.34" y1="923.45" x2="2131.32" y2="946.61"/><line class="cls-41" x1="2098.58" y1="888.49" x2="2096.56" y2="911.65"/><line class="cls-41" x1="2017.84" y1="929.7" x2="2015.82" y2="952.86"/><line class="cls-41" x1="2004.65" y1="991.15" x2="2002.63" y2="1014.31"/><line class="cls-41" x1="2045.06" y1="900.07" x2="2061.02" y2="916.98"/><line class="cls-41" x1="1969.5" y1="948.06" x2="1985.46" y2="964.98"/><line class="cls-41" x1="1979.15" y1="1038.98" x2="1995.12" y2="1055.89"/><line class="cls-41" x1="2028.37" y1="1014.42" x2="2044.33" y2="1031.33"/><line class="cls-41" x1="2019.26" y1="880.43" x2="2006.81" y2="900.07"/><line class="cls-41" x1="2177.75" y1="951.05" x2="2164.99" y2="970.49"/><line class="cls-41" x1="2230.27" y1="872.34" x2="2217.51" y2="891.78"/><line class="cls-41" x1="2190.62" y1="920.64" x2="2209.87" y2="933.69"/><line class="cls-41" x1="2245.12" y1="911.91" x2="2248.02" y2="934.98"/><line class="cls-41" x1="2246.57" y1="966.81" x2="2236.21" y2="987.64"/><line class="cls-41" x1="2266.82" y1="876.35" x2="2282.44" y2="893.58"/><line class="cls-41" x1="2317.13" y1="901.37" x2="2315.52" y2="924.57"/><line class="cls-41" x1="2278.81" y1="933.69" x2="2296.46" y2="948.83"/><line class="cls-41" x1="2260.97" y1="1003.58" x2="2278.62" y2="1018.72"/><line class="cls-41" x1="2308.82" y1="1049.67" x2="2301.07" y2="1071.59"/><line class="cls-41" x1="2254.19" y1="1049.67" x2="2265.12" y2="1070.19"/><line class="cls-41" x1="2214.5" y1="1092.14" x2="2230.11" y2="1074.9"/><line class="cls-41" x1="2117.73" y1="1094.67" x2="2133.34" y2="1077.43"/><line class="cls-41" x1="2120.37" y1="1057.07" x2="2106.23" y2="1038.61"/><line class="cls-41" x1="2230.06" y1="1024.55" x2="2222.3" y2="1046.47"/><line class="cls-41" x1="2196.45" y1="1050.51" x2="2177.21" y2="1063.57"/><line class="cls-41" x1="2179.72" y1="1090.53" x2="2156.54" y2="1088.69"/><line class="cls-41" x1="2278.62" y1="973.1" x2="2300.36" y2="981.35"/><line class="cls-41" x1="2324.78" y1="1003.97" x2="2314.61" y2="1024.88"/><line class="cls-41" x1="2336.78" y1="950.31" x2="2326.61" y2="971.22"/><line class="cls-41" x1="2053.27" y1="993.57" x2="2073.81" y2="982.66"/><line class="cls-41" x1="1951.56" y1="1008.19" x2="1972.1" y2="997.28"/><path class="cls-5" d="M1977.48,1083.79s90.92-6.14,109.19,5.38a15.21,15.21,0,0,1,7.26,15l-108.06-.1Z"/><path class="cls-9" d="M2094,1027.44c-5.2-5.49-17.88-9.2-24.21-10.78a25.34,25.34,0,0,0-7.41-.74c-7,.32-21.52,1.56-22.27,6.25-1,6.18,4,7.31,4,7.31s-19.63-4.66-24.18-3.5c-6.41,1.64-.33,11.82-.33,11.82s-3.61-3.64-6.73,2,4.43,15.09,4.43,15.09c-3.12,1.09-3.61,5.27-3.61,5.27-1.32,8.54,10.18,17.27,10.18,17.27-3.12,4.36,1.32,10,1.32,10,17.58,15.63,68.48,9.63,68.48,9.63Z"/><path class="cls-10" d="M2049.35,1089.61s-19.7-5.51-26-12.18"/><path class="cls-10" d="M2055.65,1076s-24.89-4.54-38.59-21.08"/><path class="cls-10" d="M2058,1057s-19.53,1.66-38.75-19.24"/><path class="cls-10" d="M2044.08,1029.48a64.57,64.57,0,0,0,26.28,6"/><polyline class="cls-23" points="2222.36 972.77 2227.56 1004.65 2093.93 1018.56 2093.93 1104.13"/><path class="cls-9" d="M2106.28,1012.7c.37-3.48,2.91-4.85,5.4-6.57,4.76-3.29,10.05-5.7,15.11-8.52,13.13-7.31,28.44-14.24,43.8-13.66.72,0,1.45.07,2.17.14,27.95,2.59,40.38,38.79,36.92,44.84s-13.06-1-13.06-1l-.87-.23c2.05,3.79,2.94,7.27,1.51,9.68-4.65,7.78-21.86-5.86-25.32-10.75,0,0,4.08,8.71,3.78,14.8a6.19,6.19,0,0,1-8,5.56,33.72,33.72,0,0,1-9.32-5s-.14,5-1.75,7.49c-4.74,7.3-11.2-.81-15.66-8.32a40.68,40.68,0,0,0-17.71-16.15c-3.59-1.67-7.86-3.49-12.74-5.3C2107.79,1018.72,2105.88,1016.56,2106.28,1012.7Z"/><path class="cls-10" d="M2178.79,1002.73a79.26,79.26,0,0,1,17.66,26.32"/><path class="cls-10" d="M2161.53,1008.58c.37-.44,8.25,8.84,11.38,20.3"/><path class="cls-10" d="M2145.31,1014.42s12.36,15.22,13,27.42"/><path class="cls-25" d="M1732.36,964.19l41.39,137.57,211.1,1.74-41-139.46a15.55,15.55,0,0,0-15-11.17l-189.29,1.6A7.54,7.54,0,0,0,1732.36,964.19Z"/><circle class="cls-3" cx="1849.03" cy="1023.04" r="14.56"/><path class="cls-26" d="M1905.12,952.77s1.54,78.72-52.59,102.21-87.87,16.93-87.87,16.93l9.09,29.85,211.1,1.74-40.72-138.59a16.91,16.91,0,0,0-16.23-12.14Z"/><path class="cls-9" d="M2203,843.24c-4.75,15.55-4.83,31.12-4.09,41.26a21.73,21.73,0,0,1-10.5,20.16c-15.89,9.6-29.47,9.6-39.88,6.37a21.74,21.74,0,0,1-12-32.25l13-20.76c-12.59,1.6-28.75-.39-32.5-18.34s17.15-66.17,17.15-66.17,60.86-3,61.7-3,18.58,36,18.58,36Z"/><path class="cls-11" d="M2167.32,739.37s4-8.1,19.95-6,13.93,21.79,13.93,21.79,18.39-8.76,20.18,14.28c0,0,15-5,17.86,11.61s-7.32,32.33-14.47,40.9L2203,806.46c-22.78-12.32-13.13-31.34-13.13-31.34l-.31.26a37.59,37.59,0,0,1-28.35,9,81.92,81.92,0,0,1-13.11-2.52,30.2,30.2,0,0,1-22.79-25.9s-3.22-25.72,21.61-28S2171,757,2171,757"/><path class="cls-9" d="M2201.2,807.18s14.29-5.54,20.54,5.36-.72,34.26-25.9,30.7"/><line class="cls-10" x1="2202.99" y1="831.11" x2="2214.42" y2="822"/><line class="cls-10" x1="2210.84" y1="813.79" x2="2217.27" y2="827.54"/><path class="cls-11" d="M2144.38,858.88l-6.05,16.17a79.76,79.76,0,0,0,36.08-27.15S2158.85,858.44,2144.38,858.88Z"/><polygon class="cls-11" points="2210.84 1006.39 2219.7 948.06 2228.56 1004.65 2210.84 1006.39"/><polyline class="cls-23" points="2040.83 964.75 2029.22 1004.01 2107.38 1005.34 2106.23 1015.89"/><polygon class="cls-24" points="2030.03 1004.08 2016.83 1003.2 2044.12 955.09 2030.03 1004.08"/></g><g id="bubbles"><circle class="cls-42" cx="738.13" cy="763.9" r="46.84"/><circle class="cls-42" cx="2022.25" cy="660.32" r="39.24"/><circle class="cls-42" cx="1619.59" cy="245.46" r="43.73"/><circle class="cls-42" cx="1545.87" cy="129.72" r="24.96"/><circle class="cls-42" cx="831.66" cy="94.73" r="41.14"/><circle class="cls-42" cx="935.38" cy="165.44" r="18.41"/><circle class="cls-42" cx="198.35" cy="528.6" r="18.41"/><circle class="cls-42" cx="1746.01" cy="1191.36" r="18.41"/><circle class="cls-42" cx="1951.51" cy="760.01" r="18.41"/><circle class="cls-42" cx="2340.55" cy="538.52" r="18.41"/><circle class="cls-42" cx="805.13" cy="644.43" r="21.64"/></g></g></g></svg>